<svg width="20" height="20" viewBox="0 0 20 20" fill="none" xmlns="http://www.w3.org/2000/svg">
<rect x="1.5" y="1.5" width="17" height="17" rx="8.5" fill="#161616"/>
<rect x="1.5" y="1.5" width="17" height="17" rx="8.5" stroke="#161616" stroke-width="3"/>
<path d="M10.7876 8.69426C11.1414 8.38422 11.5036 8.08451 11.8657 7.78687C11.8865 7.77447 11.9073 7.76207 11.9261 7.7476C12.361 7.41275 12.8085 7.10064 13.2706 6.80507C13.7118 6.5219 14.2176 6.68725 14.4049 7.17299C14.4111 7.18952 14.409 7.22259 14.4444 7.20399C14.4444 7.33421 14.4444 7.46649 14.4444 7.59671C14.4132 7.57191 14.4111 7.60705 14.407 7.61945C14.3487 7.81994 14.2092 7.95429 14.0407 8.06384C13.3122 8.53304 12.6212 9.04977 11.9739 9.62232C11.9344 9.65746 11.899 9.69259 11.8615 9.7298C11.4786 10.0646 11.1185 10.4202 10.7834 10.8025C10.5378 11.0568 10.3172 11.3296 10.1008 11.6066C9.81978 11.9662 9.57418 12.3486 9.33067 12.7331C9.18914 12.9563 8.97061 13.0576 8.70628 13.0555C8.48358 13.0534 8.31083 12.9522 8.15474 12.8033C7.63857 12.3031 7.12033 11.805 6.60625 11.3027C6.3107 11.0134 5.99643 10.7385 5.72169 10.4305C5.43239 10.106 5.53646 9.56238 5.91317 9.34741C6.22745 9.16759 6.56878 9.21513 6.84352 9.48176C7.39714 10.0171 7.95285 10.5524 8.50231 11.0898C8.571 11.156 8.60013 11.1539 8.65633 11.0774C9.06843 10.5008 9.53048 9.96543 10.0217 9.45489C10.2693 9.19033 10.5316 8.94643 10.7876 8.69426Z" fill="white"/>
</svg>
