<svg width="166" height="36" viewBox="0 0 166 36" fill="none" xmlns="http://www.w3.org/2000/svg">
<g clip-path="url(#clip0_11962_946)">
<path d="M24.7758 16.7381C24.61 16.5448 24.4167 16.3514 24.2786 16.1305C23.5881 15.1361 23.6709 13.617 24.4995 12.7331L24.5272 12.7055C25.1624 12.0426 25.8253 11.2416 25.7149 10.3301C25.6872 9.66723 25.3282 9.03196 24.7205 8.61765C24.0852 8.17572 23.3119 8.06524 22.649 8.2862C22.0137 8.45193 21.4889 8.92148 21.2127 9.52913C20.9365 10.1368 20.9089 10.7997 21.1851 11.3521C21.3508 11.7664 21.6546 12.0979 21.9585 12.4293C22.1518 12.6503 22.3728 12.8988 22.5109 13.1474C23.3671 14.5008 22.7318 16.0476 21.7927 16.9038C20.9365 17.7601 20.7708 18.9201 21.3784 19.8869C21.7651 20.4945 22.4556 20.9641 23.3671 20.9641C23.6433 20.9641 23.9471 20.9088 24.2786 20.7984C24.9691 20.5498 25.4939 19.9697 25.6872 19.224C25.8806 18.4782 25.6872 17.6772 25.1901 17.1524C24.9967 17.0143 24.8862 16.8762 24.7758 16.7381Z" fill="#171617"/>
<path d="M19.2799 16.821C19.5285 16.5448 19.8047 16.2409 20.0256 15.9371C20.0533 15.8819 20.0809 15.8542 20.1085 15.799C20.1361 15.7714 20.1361 15.7438 20.1637 15.7161V15.6885C20.1637 15.6609 20.1914 15.6609 20.1914 15.6609C20.4123 15.2466 20.4952 14.8599 20.4676 14.4732C20.4676 14.2523 20.4123 14.0313 20.3295 13.8379V13.8103H20.1914L20.2742 13.7551C20.2466 13.7275 20.2466 13.6722 20.219 13.6446C20.1361 13.4236 19.998 13.2303 19.8599 13.0646C19.7494 12.9265 19.6389 12.7884 19.5285 12.6503C19.3627 12.4569 19.1694 12.2359 19.0313 12.0426C18.3408 11.0483 18.4236 9.52912 19.2523 8.64526L19.2799 8.61764C19.9152 7.95475 20.578 7.15375 20.4676 6.24227C20.4399 5.57937 20.0809 4.9441 19.4732 4.52979C18.8379 4.08786 18.0646 3.97738 17.4017 4.19834C16.7664 4.36407 16.2416 4.83362 15.9654 5.44127C15.6892 6.04893 15.6616 6.71182 15.9378 7.26423C16.1035 7.67854 16.4073 8.00999 16.7112 8.34144C16.9045 8.5624 17.1255 8.81099 17.2636 9.05957C18.1198 10.413 17.4845 11.9597 16.5454 12.816C16.1864 13.175 15.9378 13.5894 15.8273 14.0313C15.6892 14.5285 15.7168 15.0256 15.9102 15.4676C16.0759 15.8819 16.3797 16.2133 16.6835 16.5448C16.8769 16.7657 17.0978 17.0143 17.236 17.2629C18.0922 18.6163 17.4569 20.1631 16.5178 21.0193C15.6616 21.8755 15.4959 23.0356 16.1035 24.0023C16.4902 24.61 17.1807 25.0795 18.0646 25.0795C18.3408 25.0795 18.6446 25.0243 18.9761 24.9138C19.6666 24.6652 20.1914 24.0852 20.3847 23.3394C20.578 22.5937 20.3847 21.7927 19.8875 21.2679C19.777 21.1298 19.6666 20.9917 19.5285 20.8536C19.3627 20.6602 19.1694 20.4669 19.0313 20.2459C18.3408 19.2516 18.4236 17.7325 19.2523 16.8486L19.2799 16.821Z" fill="#171617"/>
<path d="M14.0311 12.7055C14.2797 12.4293 14.5559 12.1255 14.7769 11.8216C14.8045 11.7664 14.8321 11.7388 14.8598 11.6835L14.915 11.573L14.9426 11.5454C15.1636 11.1311 15.2464 10.7444 15.2188 10.3577C15.2188 10.1368 15.1636 9.91581 15.0807 9.72246L15.0531 9.66722C15.0255 9.6396 15.0255 9.61198 14.9979 9.55674C14.915 9.33577 14.7769 9.14243 14.6388 8.97671C14.5283 8.8386 14.4178 8.7005 14.2797 8.5624C14.114 8.36905 13.9206 8.17571 13.7825 7.95474C13.092 6.9604 13.1749 5.44126 14.0035 4.5574L14.0311 4.52978C14.6664 3.86689 15.3293 3.06589 15.2188 2.15441C15.1912 1.49151 14.8321 0.85624 14.2245 0.44193C13.5892 0 12.8158 -0.110483 12.1529 0.110483C11.5177 0.276206 10.9929 0.745757 10.7167 1.35341C10.4404 1.96106 10.4128 2.62396 10.689 3.17637C10.8548 3.59068 11.1586 3.92213 11.4624 4.25358C11.6558 4.47454 11.8767 4.72313 12.0148 4.97171C12.8711 6.32512 12.2358 7.87188 11.2967 8.72812C10.9376 9.08719 10.689 9.5015 10.5786 9.94343C10.4404 10.4406 10.4681 10.9378 10.6614 11.3797C10.8271 11.794 11.131 12.1255 11.4348 12.4569C11.6281 12.6779 11.8491 12.9265 11.9872 13.175C12.8434 14.5285 12.2082 16.0752 11.2691 16.9314C10.91 17.2905 10.6614 17.7048 10.5509 18.1468C10.4128 18.6439 10.4404 19.1411 10.6338 19.583C10.7995 19.9973 11.1033 20.3288 11.4072 20.6602C11.6005 20.8812 11.8215 21.1298 11.9596 21.3784C12.8158 22.7318 12.1805 24.2785 11.2414 25.1348C10.3852 25.991 10.2195 27.1511 10.8271 28.1178C11.2138 28.7255 11.9043 29.195 12.7882 29.195C13.0644 29.195 13.3682 29.1398 13.6997 29.0293C14.3902 28.7807 14.915 28.2007 15.1083 27.4549C15.3017 26.7092 15.1083 25.9082 14.6112 25.3834C14.5007 25.2453 14.3902 25.1072 14.2797 24.9691C14.114 24.7757 13.9206 24.5824 13.7825 24.3614C13.092 23.3671 13.1749 21.8479 14.0035 20.9641L14.0311 20.9364C14.2797 20.6602 14.5559 20.3564 14.7769 20.0526C14.8045 19.9973 14.8321 19.9697 14.8598 19.9145C14.8874 19.8869 14.8874 19.8592 14.915 19.8316V19.804C14.915 19.7764 14.9426 19.7764 14.9426 19.7764C15.1636 19.3621 15.2464 18.9754 15.2188 18.5887C15.2188 18.3677 15.1636 18.1468 15.0807 17.9534L15.0531 17.8982C15.0255 17.8706 15.0255 17.8429 14.9979 17.7877C14.8874 17.5667 14.7769 17.3734 14.6388 17.2077C14.5283 17.0695 14.4178 16.9314 14.3073 16.7933C14.1416 16.6 13.9483 16.379 13.8102 16.1857C13.1197 15.1913 13.2025 13.6722 14.0311 12.7884V12.7055Z" fill="#171617"/>
<path d="M8.78378 16.821C9.03237 16.5448 9.30858 16.2409 9.52954 15.9371C9.55716 15.8819 9.58478 15.8542 9.6124 15.799C9.64002 15.7714 9.64002 15.7438 9.66764 15.7161V15.6885L9.69527 15.6609C9.91623 15.2466 9.99909 14.8599 9.97147 14.4732C9.97147 14.2522 9.91623 14.0313 9.83337 13.8379L9.80575 13.7827C9.77813 13.7551 9.77813 13.6998 9.75051 13.6722C9.66764 13.4513 9.52954 13.2579 9.39144 13.1198C9.28096 12.9817 9.17047 12.8436 9.03237 12.7055C8.86665 12.5121 8.6733 12.2912 8.5352 12.0978C7.84468 11.1035 7.92755 9.58436 8.75616 8.7005L8.78378 8.67288C9.41906 8.00999 10.082 7.20899 9.97147 6.29751C9.94385 5.63461 9.58478 4.99934 8.97713 4.58503C8.34185 4.1431 7.56848 4.03261 6.90558 4.25358C6.27031 4.4193 5.74552 4.88885 5.46931 5.49651C5.1931 6.10416 5.16548 6.76706 5.44169 7.31947C5.60741 7.73378 5.91124 8.06523 6.21507 8.39667C6.40841 8.61764 6.62938 8.86622 6.76748 9.11481C7.62372 10.4682 6.98844 12.015 6.04934 12.8712C5.69027 13.2303 5.44169 13.6446 5.33121 14.0865C5.1931 14.5837 5.22072 15.0809 5.41407 15.5228C5.57979 15.9371 5.88362 16.2686 6.18745 16.6C6.38079 16.821 6.60176 17.0696 6.73986 17.3181C7.5961 18.6715 6.96082 20.2183 6.02172 21.0745C5.16548 21.9308 4.99976 23.0908 5.60741 24.0576C5.9941 24.6652 6.68462 25.1348 7.56848 25.1348C7.84468 25.1348 8.14851 25.0795 8.47996 24.9691C9.17047 24.7205 9.69527 24.1404 9.88861 23.3947C10.082 22.6489 9.88861 21.8479 9.39144 21.3231C9.28096 21.185 9.17047 21.0469 9.03237 20.9088C8.86665 20.7155 8.6733 20.5221 8.5352 20.3012C7.84468 19.3068 7.92755 17.7877 8.75616 16.9038L8.78378 16.821Z" fill="#171617"/>
<path d="M3.5633 12.7055C4.19858 12.0426 4.86147 11.2416 4.75099 10.3301C4.72337 9.66723 4.3643 9.03196 3.75665 8.61765C3.12137 8.17572 2.34799 8.06524 1.6851 8.2862C1.04982 8.45193 0.525032 8.92148 0.248826 9.52913C-0.0273805 10.1368 -0.0550011 10.7997 0.221205 11.3521C0.386929 11.7664 0.690756 12.0979 0.994583 12.4293C1.18793 12.6503 1.40889 12.8988 1.547 13.1474C2.40323 14.5008 1.76796 16.0476 0.828859 16.9038C-0.0273805 17.7601 -0.193104 18.9201 0.41455 19.8869C0.801238 20.4945 1.49175 20.9641 2.40323 20.9641C2.67944 20.9641 2.98327 20.9088 3.31472 20.7984C4.00523 20.5498 4.53002 19.9697 4.72337 19.224C4.91671 18.4782 4.72337 17.6772 4.2262 17.1524C4.11571 17.0143 4.00523 16.8762 3.86713 16.7381C3.7014 16.5448 3.50806 16.3238 3.36996 16.1305C2.67944 15.1361 2.7623 13.617 3.59092 12.7331L3.5633 12.7055Z" fill="#171617"/>
<path d="M95.0419 11.2692C94.5447 10.7997 93.9923 10.3854 93.3846 10.0815C92.4455 9.58435 91.3683 9.33577 90.1806 9.33577C88.6891 9.33577 87.3633 9.69484 86.2033 10.4406C85.0432 11.1587 84.1593 12.1807 83.5241 13.4789C82.8888 14.7494 82.585 16.2133 82.585 17.8153C82.585 19.4173 82.9164 20.9088 83.5517 22.1517C84.2146 23.4223 85.1261 24.4166 86.2585 25.1071C87.3909 25.7977 88.7167 26.1567 90.153 26.1567C91.3683 26.1567 92.4455 25.9081 93.4122 25.411C94.0199 25.0795 94.5999 24.6928 95.0695 24.1957V25.77H98.6878V3.86688H95.0142V11.2692H95.0419ZM93.8818 13.9484C94.6552 14.8599 95.0419 16.1581 95.0419 17.7877C95.0419 19.4173 94.6552 20.6878 93.8818 21.5717C93.136 22.4556 92.0588 22.8975 90.7607 22.8975C89.4625 22.8975 88.3853 22.4556 87.6395 21.5441C86.8662 20.6326 86.4795 19.3621 86.4795 17.7324C86.4795 16.1028 86.8662 14.8323 87.6395 13.9208C88.3853 13.0369 89.4625 12.5674 90.7607 12.5674C92.0865 12.595 93.136 13.0369 93.8818 13.9484Z" fill="#171617"/>
<path d="M164.757 13.3408C164.094 12.0702 163.182 11.0759 162.05 10.3854C160.917 9.69484 159.591 9.33577 158.155 9.33577C156.967 9.33577 155.89 9.58435 154.924 10.0539C154.316 10.3577 153.764 10.772 153.266 11.2416V3.86688H149.593V25.7424H153.211V24.168C153.708 24.6652 154.261 25.0795 154.868 25.3834C155.835 25.8805 156.912 26.1291 158.1 26.1291C159.591 26.1291 160.917 25.77 162.077 25.0243C163.237 24.3062 164.121 23.2842 164.757 21.986C165.392 20.7155 165.696 19.2516 165.696 17.6496C165.723 16.0752 165.392 14.6113 164.757 13.3408ZM161.884 17.7324C161.884 19.3344 161.497 20.6326 160.724 21.5441C159.978 22.4279 158.901 22.8975 157.603 22.8975C156.305 22.8975 155.227 22.4556 154.482 21.5441C153.708 20.6326 153.322 19.3344 153.322 17.7048C153.322 16.0752 153.708 14.8047 154.482 13.9208C155.227 13.0369 156.305 12.595 157.603 12.595C158.901 12.595 160.006 13.0369 160.752 13.9208C161.497 14.8323 161.884 16.1028 161.884 17.7324Z" fill="#171617"/>
<path d="M53.0312 13.3684H41.0715V16.9314H49.2748C48.9434 18.5334 48.1976 19.8592 47.0376 20.8812C45.7946 21.9308 44.2755 22.4832 42.4525 22.4832C40.381 22.4832 38.6133 21.765 37.2046 20.3564C35.796 18.9477 35.0778 17.1524 35.0778 15.0532C35.0778 12.9541 35.7683 11.1863 37.177 9.75007C38.558 8.34142 40.2705 7.59566 42.2868 7.59566C45.4356 7.59566 47.6728 8.92145 48.9434 11.5178L49.0539 11.7111L52.5341 10.4958L52.4512 10.2472C51.7054 8.25856 50.4073 6.68418 48.5567 5.57936C46.7337 4.47453 44.6069 3.92212 42.3144 3.92212C39.2209 3.92212 36.5693 4.99932 34.4149 7.15373C32.2881 9.30814 31.2109 11.9321 31.2109 15.0256C31.2109 18.1191 32.3158 20.7707 34.4426 22.9251C36.597 25.0519 39.2762 26.1291 42.3973 26.1291C45.5184 26.1291 48.1148 25.0519 50.1311 22.9527C52.1474 20.8536 53.1417 18.202 53.1417 15.0532C53.1417 14.8599 53.1141 14.3903 53.0865 13.617L53.0312 13.3684Z" fill="#171617"/>
<path d="M140.009 9.41864C137.772 9.41864 135.866 10.192 134.319 11.7112C132.772 13.2303 131.999 15.219 131.999 17.622C131.999 20.025 132.772 21.9584 134.319 23.4775C135.866 24.9967 137.744 25.7424 139.871 25.7424C141.611 25.7424 143.13 25.3281 144.428 24.4995C145.726 23.6709 146.693 22.4556 147.328 20.8536L147.439 20.5774L144.152 19.8869L144.069 20.0526C143.268 21.6822 141.86 22.5108 139.899 22.5108C138.821 22.5108 137.882 22.1241 137.054 21.3784C136.308 20.6879 135.838 19.7488 135.673 18.5887H147.77V17.2353C147.688 14.9704 146.887 13.0646 145.423 11.6283C143.931 10.1644 142.108 9.41864 140.009 9.41864ZM137.275 13.617C138.103 13.0093 139.042 12.7055 140.009 12.7055C140.976 12.7055 141.887 13.0093 142.578 13.5894C143.213 14.1141 143.683 14.8599 143.931 15.8542H135.783C136.032 14.9151 136.529 14.1694 137.275 13.617Z" fill="#171617"/>
<path d="M57.5059 12.6779C55.4344 14.7494 54.3848 17.3181 54.3848 20.3288L54.4124 25.8253H58.224L58.1964 20.3564C58.1964 18.3125 58.8869 16.6 60.2127 15.219C61.5661 13.8379 63.2234 13.1474 65.1568 13.1474H65.2949V9.55673H65.1844C62.1738 9.55673 59.5774 10.6063 57.5059 12.6779Z" fill="#171617"/>
<path d="M128.657 9.3634L125.232 19.8316L121.752 9.52913L121.669 9.3634H118.686L115.15 19.8316L111.781 9.52913L111.725 9.3634H107.858L113.272 25.6043L113.327 25.7701H116.725L120.177 15.6609L123.575 25.6043L123.63 25.7701H127.055L132.524 9.3634H128.657Z" fill="#171617"/>
<path d="M80.5415 22.0965V15.2466C80.5415 13.4236 79.9062 11.9597 78.6632 10.9102C77.4479 9.86058 75.7631 9.33578 73.6639 9.33578C71.7581 9.33578 70.1561 9.80534 68.9132 10.7444C67.6702 11.6835 66.9245 12.9817 66.7311 14.5561L66.6759 14.9704H70.239L70.2942 14.6666C70.4047 14.0313 70.7361 13.5065 71.3162 13.0646C71.8686 12.6226 72.6696 12.4017 73.6363 12.4017C74.603 12.4017 75.4593 12.6503 76.0117 13.1751C76.5641 13.6722 76.8679 14.3351 76.8679 15.1914V15.4399C76.4536 15.5228 75.8183 15.6333 74.9621 15.7438L71.7581 16.0752C69.9904 16.2686 68.637 16.7657 67.7531 17.5115C66.8416 18.3125 66.3721 19.3897 66.3721 20.7983C66.3721 22.4003 66.9245 23.6985 68.0569 24.6376C69.1618 25.5767 70.598 26.0739 72.3657 26.0739C73.6087 26.0739 74.6859 25.8253 75.625 25.3558C76.2326 25.0519 76.7574 24.61 77.1994 24.1128L77.3098 25.7148H80.8177L80.7624 25.3005C80.6243 23.9195 80.5415 22.8423 80.5415 22.0965ZM76.8955 18.0639V19.1411C76.8955 20.3564 76.5365 21.3231 75.8183 22.0137C75.1002 22.7042 74.1335 23.0632 72.9734 23.0632C72.0619 23.0632 71.3438 22.8423 70.819 22.428C70.3218 22.0413 70.0732 21.5165 70.0732 20.8812C70.0732 20.3564 70.2113 19.9697 70.5428 19.7211C70.8742 19.4449 71.5095 19.1964 72.3934 19.0582L75.1002 18.5335C75.8183 18.423 76.426 18.2572 76.8955 18.0639Z" fill="#171617"/>
<path d="M105.566 9.47388H101.727V25.8253H105.566V9.47388Z" fill="#171617"/>
<path d="M105.538 3.01065H101.699V6.71182H105.538V3.01065Z" fill="#171617"/>
<path d="M55.4071 35.7162H54.4791L53.9515 34.4678H51.3414L50.8138 35.7162H49.8857L52.2501 30.3495H53.0511L55.4154 35.7162H55.4071ZM53.6145 33.6806L52.645 31.3991L51.6756 33.6806H53.6145Z" fill="#171617"/>
<path d="M58.3157 32.6725H61.2711C61.2821 32.8658 61.2876 32.9873 61.2876 33.0398C61.2876 33.8353 61.0335 34.4982 60.5281 35.0313C60.0198 35.5616 59.3708 35.8295 58.5808 35.8295C57.7909 35.8295 57.1224 35.5588 56.5783 35.0202C56.0342 34.4816 55.7607 33.8187 55.7607 33.0343C55.7607 32.2499 56.0314 31.5952 56.57 31.0511C57.1086 30.5098 57.7715 30.2391 58.556 30.2391C59.1443 30.2391 59.6691 30.3772 60.1331 30.6561C60.5971 30.9351 60.923 31.3246 61.1109 31.8245L60.3347 32.0979C59.9922 31.3991 59.4011 31.0484 58.556 31.0484C58.0173 31.0484 57.5616 31.2389 57.1915 31.6201C56.8214 32.0013 56.6336 32.4736 56.6336 33.0343C56.6336 33.595 56.8241 34.0728 57.2025 34.4512C57.5809 34.8296 58.0477 35.0202 58.6029 35.0202C59.089 35.0202 59.4978 34.8766 59.8293 34.5921C60.1607 34.3076 60.3651 33.9292 60.4452 33.4596H58.3157V32.6752V32.6725Z" fill="#171617"/>
<path d="M66.3805 34.9401V35.7162H62.3838V30.3495H66.3722V31.1257H63.24V32.6393H66.1319V33.4072H63.24V34.9373H66.3805V34.9401Z" fill="#171617"/>
<path d="M72.3885 30.3495V35.7162H71.6593L68.4139 31.8632V35.7162H67.5576V30.3495H68.2868L71.5239 34.2662V30.3495H72.3885Z" fill="#171617"/>
<path d="M76.2827 35.0202C76.7163 35.0202 77.0892 34.9042 77.4041 34.6749C77.7189 34.4457 77.9344 34.1087 78.0532 33.6668L78.8873 33.8436C78.7437 34.4623 78.4343 34.9484 77.9592 35.3019C77.4842 35.6555 76.9262 35.8295 76.2854 35.8295C75.5065 35.8295 74.8464 35.5588 74.3023 35.0202C73.7609 34.4816 73.4902 33.8187 73.4902 33.0343C73.4902 32.2499 73.7609 31.5952 74.3023 31.0511C74.8436 30.507 75.5038 30.2391 76.2854 30.2391C76.9207 30.2391 77.4759 30.4131 77.951 30.7583C78.426 31.1064 78.7381 31.5732 78.8873 32.1615L78.0532 32.4018C77.9344 31.9598 77.7189 31.6229 77.4041 31.3936C77.0892 31.1644 76.7163 31.0484 76.2827 31.0484C75.7385 31.0484 75.28 31.2389 74.9099 31.6201C74.5398 32.0013 74.3548 32.4736 74.3548 33.0343C74.3548 33.595 74.5398 34.0673 74.9099 34.4485C75.28 34.8296 75.7385 35.0202 76.2827 35.0202Z" fill="#171617"/>
<path d="M83.9811 34.9401V35.7162H79.9844V30.3495H83.9728V31.1257H80.8406V32.6393H83.7325V33.4072H80.8406V34.9373H83.9811V34.9401Z" fill="#171617"/>
<path d="M91.4051 31.1257H89.5158V35.7162H88.6513V31.1257H86.7676V30.3495H91.4051V31.1257Z" fill="#171617"/>
<path d="M96.2994 34.9401V35.7162H92.3027V30.3495H96.2912V31.1257H93.159V32.6393H96.0509V33.4072H93.159V34.9373H96.2994V34.9401Z" fill="#171617"/>
<path d="M99.934 35.0202C100.368 35.0202 100.741 34.9042 101.055 34.6749C101.37 34.4457 101.586 34.1087 101.705 33.6668L102.539 33.8436C102.395 34.4623 102.086 34.9484 101.611 35.3019C101.136 35.6555 100.578 35.8295 99.9368 35.8295C99.1579 35.8295 98.4978 35.5588 97.9536 35.0202C97.4123 34.4816 97.1416 33.8187 97.1416 33.0343C97.1416 32.2499 97.4123 31.5952 97.9536 31.0511C98.495 30.5098 99.1551 30.2391 99.9368 30.2391C100.572 30.2391 101.127 30.4131 101.602 30.7583C102.077 31.1064 102.39 31.5732 102.539 32.1615L101.705 32.4018C101.586 31.9598 101.37 31.6229 101.055 31.3936C100.741 31.1644 100.368 31.0484 99.934 31.0484C99.3899 31.0484 98.9314 31.2389 98.5613 31.6201C98.1912 32.0013 98.0034 32.4736 98.0034 33.0343C98.0034 33.595 98.1884 34.0673 98.5613 34.4485C98.9314 34.8296 99.3899 35.0202 99.934 35.0202Z" fill="#171617"/>
<path d="M108.248 30.3495V35.7162H107.392V33.4099H104.492V35.7162H103.636V30.3495H104.492V32.6255H107.392V30.3495H108.248Z" fill="#171617"/>
<path d="M115.65 34.9401V35.7162H111.653V30.3495H115.642V31.1257H112.51V32.6393H115.401V33.4072H112.51V34.9373H115.65V34.9401Z" fill="#171617"/>
<path d="M119.288 35.0202C119.722 35.0202 120.095 34.9042 120.41 34.6749C120.725 34.4457 120.94 34.1087 121.059 33.6668L121.893 33.8436C121.749 34.4623 121.44 34.9484 120.965 35.3019C120.49 35.6555 119.932 35.8295 119.291 35.8295C118.512 35.8295 117.852 35.5588 117.308 35.0202C116.767 34.4816 116.493 33.8187 116.493 33.0343C116.493 32.2499 116.764 31.5952 117.308 31.0511C117.852 30.507 118.509 30.2391 119.291 30.2391C119.926 30.2391 120.482 30.4131 120.957 30.7583C121.432 31.1064 121.744 31.5732 121.893 32.1615L121.059 32.4018C120.94 31.9598 120.725 31.6229 120.41 31.3936C120.095 31.1644 119.722 31.0484 119.288 31.0484C118.744 31.0484 118.286 31.2389 117.916 31.6201C117.546 32.0013 117.358 32.4736 117.358 33.0343C117.358 33.595 117.543 34.0673 117.916 34.4485C118.286 34.8296 118.744 35.0202 119.288 35.0202Z" fill="#171617"/>
<path d="M123.548 31.0511C124.086 30.5098 124.749 30.2391 125.533 30.2391C126.318 30.2391 126.981 30.5125 127.525 31.0566C128.066 31.6008 128.337 32.2637 128.337 33.0426C128.337 33.8215 128.066 34.4816 127.525 35.0202C126.984 35.5588 126.318 35.8295 125.533 35.8295C124.749 35.8295 124.086 35.5588 123.548 35.0202C123.009 34.4816 122.738 33.8215 122.738 33.0426C122.738 32.2637 123.009 31.5952 123.548 31.0511ZM124.161 34.4512C124.531 34.8296 124.989 35.0202 125.533 35.0202C126.078 35.0202 126.536 34.8296 126.912 34.4512C127.285 34.0728 127.472 33.6033 127.472 33.0426C127.472 32.4819 127.285 32.0013 126.912 31.6201C126.539 31.2389 126.078 31.0484 125.533 31.0484C124.989 31.0484 124.531 31.2389 124.161 31.6201C123.791 32.0013 123.606 32.4763 123.606 33.0426C123.606 33.6088 123.791 34.0728 124.161 34.4512Z" fill="#171617"/>
<path d="M135.308 30.3495V35.7162H134.474V32.2885L132.632 35.7162H132.104L130.262 32.2885V35.7162H129.428V30.3495H130.179L132.367 34.4098L134.562 30.3495H135.308Z" fill="#171617"/>
<path d="M142.531 30.3495V35.7162H141.697V32.2885L139.854 35.7162H139.327L137.485 32.2885V35.7162H136.65V30.3495H137.402L139.589 34.4098L141.785 30.3495H142.531Z" fill="#171617"/>
<path d="M147.876 34.9401V35.7162H143.879V30.3495H147.867V31.1257H144.735V32.6393H147.627V33.4072H144.735V34.9373H147.876V34.9401Z" fill="#171617"/>
<path d="M153.664 35.7162H152.598L150.684 33.5784H149.908V35.7162H149.052V30.3495H151.574C152.123 30.3495 152.568 30.4987 152.908 30.7942C153.247 31.0898 153.416 31.482 153.416 31.9681C153.416 32.4266 153.264 32.8023 152.955 33.095C152.648 33.3851 152.236 33.5453 151.725 33.5701L153.664 35.7162ZM149.908 32.7995H151.574C151.866 32.7995 152.104 32.7222 152.286 32.5702C152.468 32.4183 152.56 32.2167 152.56 31.9654C152.56 31.714 152.468 31.5124 152.286 31.3577C152.104 31.203 151.866 31.1257 151.574 31.1257H149.908V32.7995Z" fill="#171617"/>
<path d="M156.974 35.0202C157.408 35.0202 157.78 34.9042 158.095 34.6749C158.41 34.4457 158.626 34.1087 158.744 33.6668L159.579 33.8436C159.435 34.4623 159.126 34.9484 158.648 35.3019C158.173 35.6555 157.615 35.8295 156.974 35.8295C156.195 35.8295 155.535 35.5588 154.991 35.0202C154.449 34.4816 154.179 33.8187 154.179 33.0343C154.179 32.2499 154.449 31.5952 154.991 31.0511C155.532 30.5098 156.195 30.2391 156.974 30.2391C157.609 30.2391 158.164 30.4131 158.639 30.7583C159.115 31.1064 159.427 31.5732 159.576 32.1615L158.742 32.4018C158.623 31.9598 158.407 31.6229 158.093 31.3936C157.778 31.1644 157.405 31.0484 156.971 31.0484C156.427 31.0484 155.969 31.2389 155.598 31.6201C155.228 32.0013 155.043 32.4736 155.043 33.0343C155.043 33.595 155.228 34.0673 155.598 34.4485C155.969 34.8296 156.427 35.0202 156.971 35.0202H156.974Z" fill="#171617"/>
<path d="M164.672 34.9401V35.7162H160.675V30.3495H164.663V31.1257H161.531V32.6393H164.423V33.4072H161.531V34.9373H164.672V34.9401Z" fill="#171617"/>
</g>
<defs>
<clipPath id="clip0_11962_946">
<rect width="166" height="36" fill="white"/>
</clipPath>
</defs>
</svg>
