<svg xmlns="http://www.w3.org/2000/svg" viewBox="0 0 288.59 63.99"><defs><style>.cls-1,.cls-2{fill:#1d1d1c;}.cls-1{fill-rule:evenodd;}</style></defs><g id="Capa_2" data-name="Capa 2"><g id="Capa_1-2" data-name="Capa 1"><path class="cls-1" d="M28.32,0a5,5,0,0,1,4.36,2.92,4.63,4.63,0,0,1-.88,5.5c-3.69,4.2-3.71,7,0,11.26a4.7,4.7,0,0,1-.15,6.86c-3.57,3.83-3.57,6.89,0,10.93,2.14,2.42,2,5.14-.24,7.37-3.23,3.16-3.25,7.29,0,10.4a4.83,4.83,0,0,1,1.52,5.39,4.73,4.73,0,0,1-4.06,3.31,4.82,4.82,0,0,1-5-2.51A5.25,5.25,0,0,1,25,55.07a6.79,6.79,0,0,0,.41-9.91c-2.74-2.59-2.9-5.31-.46-7.93,3.28-3.51,3.24-7.3-.11-10.65-2.39-2.4-2.27-5.33.33-7.55C28.1,16.53,28,11.84,25,8.86c-1.43-1.42-2.28-3-1.62-5.16A5.11,5.11,0,0,1,27.25.12,9,9,0,0,1,28.32,0Z"/><path class="cls-1" d="M16.34,55c-1.62.08-4.25-1.89-4.86-3.89a4.4,4.4,0,0,1,1.67-4.84c3.11-2.52,3.25-7.9.17-10.37a4.82,4.82,0,0,1-.49-7.09c3.56-3.9,3.6-7.1.15-11.08-1.52-1.76-2-4.61-1-6.09a5.52,5.52,0,0,1,6.3-2.25,5.19,5.19,0,0,1,3.13,5.5,4.71,4.71,0,0,1-1.66,2.86c-3.17,3.4-3.22,6.89-.13,10.32,2.55,2.83,2.53,5.17-.08,7.8a7,7,0,0,0-.1,10C21,47.58,22,49.36,21.1,51.67A5,5,0,0,1,16.34,55Z"/><path class="cls-1" d="M40.08,54.91a4.79,4.79,0,0,1-4.57-3.21,4.46,4.46,0,0,1,1.23-5.23c3.35-3.35,3.4-7.4.09-10.76-2.27-2.3-2.3-5-.07-7.33q5.16-5.44,0-10.71a5,5,0,1,1,6.78.07c-3.36,3.29-3.38,7.22,0,10.57a4.91,4.91,0,0,1,0,7.35c-3.39,3.35-3.36,7.26,0,10.77C45,48,45.7,49.71,44.71,51.84A4.9,4.9,0,0,1,40.08,54.91Z"/><path class="cls-1" d="M56.56,22.56A5.58,5.58,0,0,1,54.84,27a6.92,6.92,0,0,0-.18,9.91c3,2.77,2.16,6.84-.4,8.34a4.94,4.94,0,0,1-6.1-7.67c2.32-2,2.63-4.32,2.37-7a5.48,5.48,0,0,0-2-3.62,5.09,5.09,0,0,1-.86-6.85c1.76-2.25,4.12-2.68,6.76-1.17A4.32,4.32,0,0,1,56.56,22.56Z"/><path class="cls-1" d="M9.87,23.43a2.76,2.76,0,0,1-1,2.6c-1.78,1.86-3.22,3.84-2.9,6.74a6.83,6.83,0,0,0,2.11,4.42c2.44,2.38,2.52,5.08.11,7.59a4.66,4.66,0,0,1-6.61-.23c-2.15-2.13-2.06-5.07.22-7.31a7.13,7.13,0,0,0,0-10.47,5,5,0,0,1-.9-6.52c1.11-1.91,3.19-2.63,5.74-2C8.56,18.74,9.81,20.73,9.87,23.43Z"/><path class="cls-2" d="M107,35.76a16.06,16.06,0,0,1-5.94,10,16.94,16.94,0,0,1-10.91,3.92,16.67,16.67,0,0,1-6.67-1.35,17.1,17.1,0,0,1-9.13-9.13,17.23,17.23,0,0,1,0-13.37,17.07,17.07,0,0,1,9.13-9.14,15.87,15.87,0,0,1,6.32-1.35,17.26,17.26,0,0,1,10.56,3.39,16.9,16.9,0,0,1,6.24,8.91H103a13.7,13.7,0,0,0-5.07-6.46,13.38,13.38,0,0,0-7.76-2.41A13.73,13.73,0,0,0,76.44,32.48a13.38,13.38,0,0,0,4,9.71,13.16,13.16,0,0,0,9.72,4.05,14.07,14.07,0,0,0,13.37-9.55H90v-3h17.34Z"/><path class="cls-2" d="M90.16,50.27a17.27,17.27,0,0,1-6.9-1.4,17.72,17.72,0,0,1-9.45-9.45,17.8,17.8,0,0,1,0-13.84,17.72,17.72,0,0,1,9.45-9.45,16.46,16.46,0,0,1,6.55-1.4,17.93,17.93,0,0,1,10.92,3.51,17.6,17.6,0,0,1,6.46,9.21l.23.78h-4.84l-.15-.38a13.2,13.2,0,0,0-4.85-6.18A13.11,13.11,0,0,0,77,32.48a12.8,12.8,0,0,0,3.83,9.28,12.63,12.63,0,0,0,9.29,3.88A13.34,13.34,0,0,0,98,43.14a13.07,13.07,0,0,0,4.64-5.85H89.41V33.1h18.65l-.46,2.76a16.71,16.71,0,0,1-6.15,10.36A17.58,17.58,0,0,1,90.16,50.27Z"/><path class="cls-2" d="M225,51.23,213.84,27.39,202.71,51.23l-8.33-38.48h4.77l5.29,24.92,9.41-20.86L223.6,38l4.93-25.29h4.72Z"/><path class="cls-2" d="M115.48,50.1h-4.14v-12a11.75,11.75,0,0,1,1.06-4.91,12.39,12.39,0,0,1,2.89-4,14.1,14.1,0,0,1,4.26-2.67,13.7,13.7,0,0,1,5.22-1v4.14a10,10,0,0,0-3.61.65,9.37,9.37,0,0,0-3,1.8,8.56,8.56,0,0,0-2,2.7,7.58,7.58,0,0,0-.72,3.27Z"/><path class="cls-2" d="M138.14,25.46a12.34,12.34,0,0,1,4.91,1,12.83,12.83,0,0,1,4,2.69,12.69,12.69,0,0,1,2.69,4,12.13,12.13,0,0,1,1,4.88v12h-4.19V47.36a12.85,12.85,0,0,1-3.82,2.33,12.49,12.49,0,0,1-4.6.84,12,12,0,0,1-4.86-1,12.85,12.85,0,0,1-4-2.67,12.34,12.34,0,0,1-2.69-4,12.52,12.52,0,0,1,0-9.76,12.69,12.69,0,0,1,2.69-4,13.08,13.08,0,0,1,4-2.69A12,12,0,0,1,138.14,25.46Zm0,4.14a8.41,8.41,0,0,0-3.27.65,8,8,0,0,0-2.67,1.81,8.76,8.76,0,0,0-1.8,2.69,8.2,8.2,0,0,0,0,6.54,8.49,8.49,0,0,0,4.47,4.48,8.44,8.44,0,0,0,6.59,0A8.46,8.46,0,0,0,144.13,44a8.06,8.06,0,0,0,1.78-2.67,8.52,8.52,0,0,0-1.78-9.23,8,8,0,0,0-2.67-1.81A8.47,8.47,0,0,0,138.14,29.6Z"/><path class="cls-2" d="M168.07,25.46a12.06,12.06,0,0,1,4.59.87,13.2,13.2,0,0,1,3.83,2.36V14.83h4.09V38a12.13,12.13,0,0,1-1,4.88,12.61,12.61,0,0,1-2.67,4,12.28,12.28,0,0,1-4,2.67,12.13,12.13,0,0,1-4.88,1,12,12,0,0,1-4.86-1,12.73,12.73,0,0,1-4-2.67,12.5,12.5,0,0,1-2.69-13.73,12.52,12.52,0,0,1,2.69-4,13,13,0,0,1,4-2.69A12,12,0,0,1,168.07,25.46Zm0,4.14a8.33,8.33,0,0,0-3.27.65,8,8,0,0,0-2.67,1.81,8.78,8.78,0,0,0-1.81,2.69,8.31,8.31,0,0,0,0,6.54,8.56,8.56,0,0,0,4.48,4.48,8.31,8.31,0,0,0,6.54,0A8.78,8.78,0,0,0,174,44a8,8,0,0,0,1.81-2.67,8.41,8.41,0,0,0-7.77-11.69Z"/><path class="cls-2" d="M185.05,14.88h4.14v5.58h-4.14Zm0,11.16h4.14V50.1h-4.14Z"/><path class="cls-2" d="M246.3,50.2a12.13,12.13,0,0,1-4.88-1,12.62,12.62,0,0,1-6.69-6.66,12,12,0,0,1-1-4.86,12.34,12.34,0,0,1,1-4.91,12.16,12.16,0,0,1,2.69-4,13,13,0,0,1,4-2.67,12.52,12.52,0,0,1,9.76,0,12.4,12.4,0,0,1,6.64,6.66,12.34,12.34,0,0,1,1,4.91v.72a12.65,12.65,0,0,1-.1,1.3H238.17a7.86,7.86,0,0,0,1.1,2.55,9.54,9.54,0,0,0,1.83,2,8.1,8.1,0,0,0,5.2,1.83,5,5,0,0,0,2.31-.6,9.65,9.65,0,0,0,2.21-1.61l2.89,2.88a13.73,13.73,0,0,1-3.49,2.48A8.7,8.7,0,0,1,246.3,50.2Zm8.13-14.58a9.74,9.74,0,0,0-1.13-2.53,8.18,8.18,0,0,0-4.19-3.34,8.49,8.49,0,0,0-5.63,0,8.5,8.5,0,0,0-2.38,1.32,9.08,9.08,0,0,0-1.83,2,8.25,8.25,0,0,0-1.1,2.53Z"/><path class="cls-2" d="M276,25.08a12.31,12.31,0,0,1,4.91,1,13,13,0,0,1,4,2.67,12.54,12.54,0,0,1,3.68,8.9,12,12,0,0,1-1,4.86,12.79,12.79,0,0,1-2.69,4,12.5,12.5,0,0,1-4,2.69,12.31,12.31,0,0,1-4.91,1,12,12,0,0,1-4.86-1,12.57,12.57,0,0,1-4-2.69,12.81,12.81,0,0,1-2.7-4,12,12,0,0,1-1-4.86V14.45h4.09V28.36A13.44,13.44,0,0,1,271.41,26,11.82,11.82,0,0,1,276,25.08Zm0,4.14a8.41,8.41,0,0,0-3.27.65A8.2,8.2,0,0,0,270,31.68a8.81,8.81,0,0,0-1.8,2.69,8.2,8.2,0,0,0,0,6.54,8.6,8.6,0,0,0,1.8,2.67,8.69,8.69,0,0,0,2.67,1.81,8.44,8.44,0,0,0,6.59,0A8.46,8.46,0,0,0,282,43.58a8.06,8.06,0,0,0,1.78-2.67,8.55,8.55,0,0,0,0-6.54A8.25,8.25,0,0,0,282,31.68a8,8,0,0,0-2.67-1.81A8.47,8.47,0,0,0,276,29.22Z"/></g></g></svg>