<svg width="50" height="50" viewBox="0 0 50 50" fill="none" xmlns="http://www.w3.org/2000/svg">
<path d="M17.4833 34.7323C17.6142 35.5577 17.7596 36.383 17.8906 37.2083C18.1088 38.5052 18.3124 39.8021 18.5452 41.099C18.647 41.6738 19.1707 42.0275 19.7235 41.9686C20.2762 41.9096 20.6835 41.4233 20.6835 40.819C20.669 40.7306 20.669 40.598 20.6399 40.4801C20.2908 38.3873 19.9562 36.2798 19.6071 34.187C19.4762 33.4354 18.967 33.008 18.3415 33.1112C17.6869 33.2144 17.3378 33.7744 17.4396 34.5555C17.4542 34.6144 17.4687 34.6734 17.4833 34.7323Z" fill="#EF8195"/>
<path d="M31.3615 41.955C31.9752 42.0728 32.5013 41.6605 32.6474 40.939C32.662 40.8654 32.6766 40.7918 32.6766 40.7182C32.8666 39.5991 33.0419 38.4948 33.2319 37.3757C33.4072 36.3303 33.568 35.2848 33.7287 34.3425C33.7433 33.6799 33.3342 33.194 32.7935 33.1056C32.2529 33.032 31.7122 33.3854 31.5807 33.9449C31.5515 34.0627 31.5369 34.1805 31.5076 34.313C31.3469 35.2996 31.1862 36.2714 31.0254 37.2579C30.8355 38.377 30.6455 39.4813 30.4848 40.6004C30.3825 41.3071 30.7478 41.8372 31.3615 41.955Z" fill="#EF8195"/>
<path d="M25.5951 41.9747C26.1653 41.9599 26.554 41.4724 26.554 40.7485C26.554 39.67 26.554 38.6064 26.554 37.5279C26.554 36.4642 26.554 35.4006 26.554 34.3517C26.554 33.5982 26.1653 33.0959 25.5821 33.0959C24.9989 33.0959 24.5972 33.5982 24.5972 34.3517C24.5972 36.479 24.5972 38.6211 24.5972 40.7485C24.6102 41.4724 25.0248 41.9894 25.5951 41.9747Z" fill="#EF8195"/>
<path d="M43.8885 15.0772C44.5981 13.6398 45.2789 12.1733 46.032 10.7649C47.0313 8.89194 46.0899 7.06251 44.714 6.26395C44.1637 5.94452 43.5988 5.65414 43.0195 5.42183C41.3539 4.73942 39.558 5.34923 38.8049 6.84472C37.9793 8.45636 37.1972 10.0825 36.4007 11.6942C36.0531 12.3911 36.2124 13.1025 36.8062 13.6107C36.8931 13.6833 36.98 13.7559 37.0814 13.8285C36.9076 14.1915 36.7338 14.54 36.56 14.8884C36.4441 14.8594 36.3862 14.8449 36.3138 14.8303C35.4737 14.6271 34.822 14.9175 34.4165 15.7015C34.1702 16.1806 33.924 16.6598 33.7068 17.1389C33.4751 17.6326 33.6199 18.0536 34.0978 18.3295C34.3006 18.4456 34.5178 18.5473 34.7351 18.6489C34.1702 19.7814 32.6785 22.9321 31.9543 24.4131C31.4329 24.4131 30.897 24.4131 30.3612 24.4131C30.3612 22.8885 30.3757 19.491 30.3467 18.373C30.3322 17.7923 30.535 17.4148 31.0129 17.0663C34.6192 14.3948 34.3151 8.84838 30.4481 6.59789C29.5356 6.06068 28.6956 6.53981 28.6956 7.61424C28.6956 8.52896 28.6956 9.45819 28.6956 10.3729C28.6956 10.5036 28.6666 10.6778 28.5797 10.7504C28.1597 11.1279 27.7252 11.4764 27.2762 11.8394C26.8707 11.5054 26.4797 11.2005 26.1176 10.8666C25.9872 10.7359 25.8714 10.5181 25.8714 10.3439C25.8424 9.44367 25.8714 8.52896 25.8569 7.62876C25.8569 6.53981 25.0169 6.06068 24.0755 6.61241C20.2084 8.87742 19.9333 14.4238 23.5541 17.0808C24.003 17.4148 24.2203 17.7923 24.2058 18.3585C24.1768 19.491 24.1913 22.874 24.1913 24.4276C22.4389 24.4276 20.7154 24.4276 19.0932 24.4276C18.7601 23.5855 18.2532 22.2787 18.2243 22.1916C17.5291 20.188 16.8049 18.1988 16.0952 16.2097C15.9359 15.7741 15.7621 15.3385 15.6462 14.8884C15.4435 14.1334 15.9504 13.6688 16.7035 13.8575C16.8918 13.9011 17.0946 13.9011 17.2973 13.843C17.7753 13.6978 18.2532 13.5236 18.7312 13.3348C19.4698 13.0445 19.8464 12.2169 19.6002 11.4619C19.1657 10.1987 18.7022 8.9355 18.2243 7.68684C18.007 7.10607 17.5146 6.74308 16.9063 6.8302C15.7911 6.97539 14.7193 7.2803 14.14 8.4128C13.8938 8.87742 13.6765 8.95002 13.1696 8.73223C12.6482 8.49992 12.0979 8.38377 11.562 8.57252C10.4902 8.95002 9.38951 9.29848 8.37568 9.80666C5.72526 11.1279 4.49419 13.9301 5.24731 16.6307C5.39214 17.1534 5.65284 17.5454 6.18872 17.6471C6.76805 17.7632 7.18806 17.5309 7.52117 17.0373C7.88325 16.5001 8.535 16.2532 9.15777 16.3694C9.83848 16.5001 10.4178 16.7614 10.6785 17.5019C11.1275 18.8086 11.6054 20.1008 12.0689 21.4076C12.1703 21.6834 12.851 23.5855 13.1407 24.3986C10.4613 24.3986 8.65086 24.384 8.41913 24.384C7.73842 24.355 7.24599 24.5583 6.95633 25.1971C6.95633 26.8523 6.95633 28.493 6.95633 30.1482C7.24599 30.7725 7.73842 31.0194 8.41913 30.9613C8.73776 30.9322 9.07088 30.9613 9.38951 30.9613C9.43296 31.1065 9.46192 31.2226 9.50537 31.3388C10.8378 35.985 12.1558 40.6311 13.4882 45.2773C13.691 46.0033 14.0241 46.2501 14.7628 46.2501C21.9609 46.2501 29.1446 46.2501 36.3427 46.2501C37.0814 46.2501 37.4145 45.9888 37.6172 45.2773C38.7759 41.2119 39.9346 37.1465 41.0932 33.0811C41.296 32.3697 41.4987 31.6727 41.7015 30.9613C42.1215 30.9613 42.5126 30.9613 42.9036 30.9613C43.7147 30.9613 44.1492 30.5257 44.1492 29.7271C44.1492 28.3623 44.1492 26.983 44.1492 25.6182C44.1492 24.8487 43.7002 24.4131 42.9326 24.4131C42.6719 24.4131 40.6298 24.4131 37.6607 24.4131C38.1242 23.3967 39.0511 21.3205 39.2538 20.8994C39.4566 21.001 39.6304 21.0736 39.7897 21.1608C40.4125 21.4511 40.8036 21.335 41.1077 20.7252C41.3539 20.2315 41.6001 19.7379 41.8319 19.2442C42.107 18.6344 42.0057 18.0101 41.5422 17.5309C41.4118 17.4003 41.2815 17.2986 41.1367 17.1679C41.3249 16.805 41.4987 16.4565 41.6581 16.1226C42.8457 16.3839 43.3671 16.1371 43.8885 15.0772ZM25.8714 18.3295C25.9003 17.2115 25.4658 16.3984 24.5679 15.7305C22.352 14.1044 22.0333 11.0553 23.8003 8.96454C23.9017 8.84838 23.9741 8.71771 24.061 8.58704C24.1044 8.61607 24.1479 8.65963 24.2058 8.68867C24.2058 9.41464 24.2203 10.1551 24.2058 10.8811C24.1913 11.2731 24.3362 11.5635 24.6403 11.7958C25.1327 12.1733 25.5962 12.5798 26.0741 12.9719C26.8562 13.6107 27.7252 13.6107 28.4928 12.9719C28.9563 12.5944 29.4198 12.1878 29.8977 11.8248C30.2308 11.5635 30.3612 11.2586 30.3612 10.8375C30.3467 10.1261 30.3612 9.41464 30.3612 8.58704C31.0419 9.18233 31.4184 9.8357 31.6647 10.5762C32.2729 12.4782 31.6502 14.5254 30.0136 15.7015C29.0866 16.3694 28.6522 17.2115 28.6811 18.373C28.7101 19.5201 28.6956 22.6417 28.6956 24.3986C27.7542 24.3986 26.7983 24.3986 25.8569 24.3986C25.8569 22.874 25.8279 19.462 25.8714 18.3295ZM12.3586 17.197C11.7213 14.8594 8.54948 13.9156 6.84046 15.353C6.82598 15.3676 6.78253 15.3676 6.7246 15.3676C6.60873 14.1915 6.99978 13.2042 7.7529 12.3475C8.30327 11.7087 8.99846 11.2586 9.79503 10.9537C10.4468 10.7069 11.084 10.4455 11.7358 10.2422C12.011 10.1551 12.3006 10.1696 12.5758 10.2713C13.7924 10.7504 14.9655 10.3729 15.5593 9.22588C15.82 8.71771 16.3125 8.67415 16.7759 8.47088C17.1815 9.60339 17.5725 10.6778 17.978 11.7813C17.5001 11.9555 17.0801 12.1588 16.5442 12.0862C15.0959 11.8974 13.8648 13.1751 13.9662 14.7432C13.9952 15.0917 14.0821 15.4401 14.1979 15.7741C14.9221 17.8504 15.6752 19.9121 16.4139 21.9884C16.4428 22.0755 16.9787 23.4984 17.3118 24.384C16.4718 24.384 15.6752 24.384 14.9076 24.384C14.3138 22.7579 12.822 18.8812 12.3586 17.197ZM35.691 44.0577C28.9273 44.0577 22.1782 44.0577 15.3855 44.0577C14.1545 39.7164 12.9089 35.3606 11.6634 30.9903C20.9181 30.9903 30.1439 30.9903 39.4132 30.9903C38.1821 35.3461 36.9365 39.7019 35.691 44.0577ZM41.9477 28.7543C31.0129 28.7543 20.0781 28.7543 9.14329 28.7543C9.14329 28.0429 9.14329 27.346 9.14329 26.62C20.0636 26.62 30.9984 26.62 41.9477 26.62C41.9477 27.3315 41.9477 28.0284 41.9477 28.7543ZM35.7924 24.4131C35.1551 24.4131 34.5034 24.4131 33.8227 24.4131C34.4889 23.0337 35.7924 20.2896 36.2413 19.3894C36.7627 19.6507 37.2407 19.8831 37.7621 20.1444C37.429 20.7978 36.3138 23.3096 35.7924 24.4131ZM40.1084 15.4692C39.9925 15.716 39.8621 15.9483 39.7463 16.1952C39.1959 17.3131 39.2973 17.8213 40.2532 18.6634C40.1518 18.8812 40.0359 19.099 39.9201 19.3604C38.4573 18.6344 37.0234 17.9229 35.5462 17.1825C35.662 16.9502 35.7779 16.7178 35.8793 16.5001C36.082 16.5436 36.2848 16.6017 36.4731 16.6017C37.1248 16.6307 37.6317 16.3984 37.9504 15.8176C38.1386 15.4837 38.298 15.1352 38.4573 14.8013C39.0076 13.6978 38.8918 13.1461 37.9359 12.3475C38.3559 11.4909 38.7904 10.6197 39.2249 9.74858C39.5435 9.10973 39.8621 8.45636 40.1808 7.81751C40.6153 6.94635 41.3684 6.61241 42.2808 6.94635C42.8746 7.16414 43.4395 7.46905 43.9754 7.78847C44.6126 8.18049 45.0616 9.05165 44.5547 10.0099C43.7726 11.4909 43.0629 13.0154 42.3098 14.54C41.1801 14.206 40.6008 14.4674 40.1084 15.4692Z" fill="#545454"/>
<path d="M5.0231 7.03459C4.95176 6.89073 4.83049 6.78283 4.68069 6.73248C3.76045 6.42318 3.23256 4.78318 3.12556 4.22932C3.07562 3.99195 2.89728 3.81213 2.66187 3.76178C2.34086 3.69704 2.02698 3.90564 1.96278 4.22932C1.84151 4.81915 1.33502 6.41599 0.407646 6.73248C0.229306 6.79002 0.0866318 6.93388 0.0295627 7.11371C-0.0203726 7.26476 -0.00610539 7.4302 0.0652309 7.57406C0.136567 7.71792 0.25784 7.82581 0.407646 7.87616C1.32788 8.18546 1.85577 9.82547 1.96278 10.3793C2.01985 10.6599 2.26239 10.8613 2.54773 10.8613C2.82594 10.8613 3.07562 10.6599 3.13269 10.3793C3.25396 9.7895 3.76045 8.19266 4.68782 7.87616C4.86616 7.81862 5.00884 7.67476 5.06591 7.49494C5.10157 7.33669 5.09444 7.17125 5.0231 7.03459ZM3.38237 7.30073C3.03282 7.6388 2.74748 8.03441 2.53347 8.46599C2.31946 8.02722 2.03411 7.6388 1.68456 7.30073C2.03411 6.96266 2.31946 6.56704 2.53347 6.13546C2.75461 6.56704 3.03282 6.96266 3.38237 7.30073Z" fill="#545454"/>
<path d="M49.9363 19.2272C49.8649 19.0834 49.7436 18.9755 49.5938 18.9251C48.6736 18.6158 48.1457 16.9758 48.0387 16.4219C47.9888 16.1846 47.8104 16.0048 47.575 15.9544C47.254 15.8897 46.9401 16.0983 46.8759 16.4219C46.7547 17.0118 46.2482 18.6086 45.3208 18.9251C45.1425 18.9827 44.9998 19.1265 44.9427 19.3063C44.8928 19.4574 44.907 19.6228 44.9784 19.7667C45.0497 19.9105 45.171 20.0184 45.3208 20.0688C46.241 20.3781 46.7689 22.0181 46.8759 22.572C46.933 22.8525 47.1755 23.0539 47.4609 23.0539C47.7391 23.0539 47.9888 22.8525 48.0458 22.572C48.1671 21.9821 48.6736 20.3853 49.601 20.0688C49.7793 20.0112 49.922 19.8674 49.9791 19.6876C50.0147 19.5293 50.0076 19.3639 49.9363 19.2272ZM48.2955 19.4934C47.946 19.8314 47.6606 20.227 47.4466 20.6586C47.2326 20.2198 46.9473 19.8314 46.5977 19.4934C46.9473 19.1553 47.2326 18.7597 47.4466 18.3281C47.6678 18.7597 47.946 19.1553 48.2955 19.4934Z" fill="#545454"/>
</svg>
