<svg width="63" height="63" viewBox="0 0 63 63" fill="none" xmlns="http://www.w3.org/2000/svg">
<rect x="3" y="4.05469" width="57" height="54" stroke="#020323" stroke-width="0.5"/>
<rect x="57" y="2.05469" width="5" height="5" fill="#F6F6F6" stroke="#020323" stroke-width="0.5"/>
<rect x="57" y="55.0547" width="5" height="5" fill="#F6F6F6" stroke="#020323" stroke-width="0.5"/>
<rect x="1" y="55.0547" width="5" height="5" fill="#F6F6F6" stroke="#020323" stroke-width="0.5"/>
<rect x="1" y="1.05469" width="5" height="5" fill="#F6F6F6" stroke="#020323" stroke-width="0.5"/>
<g clip-path="url(#clip0_2221_2235)">
<path d="M42.8677 36.258C42.8677 32.3938 42.8677 28.5295 42.8677 24.6653C42.8677 23.533 42.9599 23.4432 44.1397 23.4432C45.5224 23.4432 46.905 23.4612 48.2877 23.4252C49.0251 23.4072 49.3385 23.6589 49.3385 24.4137C49.3201 32.2859 49.3201 40.1581 49.3385 48.0483C49.3385 48.7672 49.0804 49.0727 48.3246 49.0548C46.8866 49.0188 45.4302 49.0188 43.9922 49.0548C43.1258 49.0907 42.8677 48.7312 42.8677 47.9404C42.8677 44.0403 42.8677 40.1401 42.8677 36.258Z" fill="black"/>
<path d="M39.6967 38.6125C39.6967 41.7218 39.6782 44.8312 39.7151 47.9585C39.7151 48.7673 39.4386 49.0908 38.5906 49.0548C37.1157 49.0189 35.6409 49.0189 34.166 49.0548C33.5024 49.0728 33.2258 48.7853 33.2258 48.1382C33.2258 41.7578 33.2258 35.3953 33.2258 29.0149C33.2258 28.4038 33.4839 28.1522 34.1107 28.1522C35.6224 28.1702 37.1157 28.1881 38.6274 28.1522C39.4202 28.1342 39.7151 28.4038 39.7151 29.1946C39.6782 32.3219 39.6967 35.4672 39.6967 38.6125Z" fill="black"/>
<path d="M13.5184 40.8412C13.5184 38.5406 13.5368 36.2221 13.4999 33.9216C13.4815 33.1128 13.7396 32.7713 14.6061 32.8072C16.044 32.8612 17.5004 32.8432 18.9384 32.8072C19.7127 32.7893 19.9708 33.1128 19.9708 33.8317C19.9523 38.5586 19.9523 43.3035 19.9708 48.0304C19.9708 48.7493 19.6943 49.0549 18.9384 49.0369C17.4636 49.001 15.9887 49.001 14.5139 49.0369C13.7396 49.0549 13.4999 48.7314 13.4999 48.0124C13.5368 45.622 13.5184 43.2316 13.5184 40.8412Z" fill="black"/>
<path d="M35.4382 16.2719C34.7007 16.0562 34.0924 15.9304 33.5209 15.7327C32.6175 15.4272 32.2488 14.7802 32.5069 14.0073C32.765 13.2345 33.4287 12.893 34.3505 13.1266C36.1018 13.576 37.8532 14.0253 39.5861 14.4926C40.4711 14.7262 40.8766 15.3373 40.6554 16.2C40.2314 17.8895 39.7889 19.561 39.2727 21.2145C39.0146 22.0772 38.2404 22.4546 37.4845 22.203C36.7102 21.9514 36.3968 21.2684 36.5996 20.4057C36.7286 19.8845 36.8393 19.3633 36.9683 18.8421C36.9683 18.8241 36.9499 18.7881 36.8946 18.6803C35.0695 19.7048 33.2443 20.7292 31.4377 21.7537C27.2344 24.1082 23.0495 26.4806 18.8278 28.8171C18.4038 29.0508 17.7954 29.3383 17.4083 29.2125C16.9474 29.0508 16.4681 28.5475 16.3021 28.0802C16.0809 27.4691 16.5418 26.9659 17.1133 26.6424C19.7311 25.1686 22.3305 23.6948 24.9299 22.239C28.2299 20.3877 31.5114 18.5365 34.8114 16.6853C34.9588 16.5954 35.1063 16.4876 35.4382 16.2719Z" fill="black"/>
<path d="M30.1288 43.2853C30.1288 44.867 30.1104 46.4666 30.1472 48.0482C30.1657 48.7851 29.8891 49.0727 29.1149 49.0547C27.64 49.0187 26.1652 49.0187 24.6903 49.0547C23.9161 49.0727 23.658 48.7492 23.658 48.0302C23.6764 44.849 23.6764 41.6857 23.658 38.5045C23.658 37.8575 23.8792 37.498 24.6166 37.498C26.1467 37.516 27.6953 37.516 29.2255 37.498C29.9076 37.4801 30.1472 37.8036 30.1288 38.4326C30.1104 40.0502 30.1288 41.6678 30.1288 43.2853Z" fill="black"/>
<path d="M50.4261 21.0707C50.2786 21.3583 50.0021 21.4482 49.6887 21.4482C48.1954 21.4482 48.6931 21.4482 47.2183 21.4482H46.7759V25.4561C46.7759 25.528 46.7759 25.582 46.7759 25.6538H45.3379C45.3379 24.0003 45.3379 18.878 45.3379 17.2245C45.3379 16.5595 45.596 16.3079 46.2781 16.3079C48.0479 16.3079 47.8267 16.3079 49.6149 16.3079C49.9652 16.3079 50.2786 16.3618 50.4445 16.7033C50.6104 17.0268 50.4814 17.3144 50.2602 17.6019C49.9836 17.9434 49.7255 18.3208 49.449 18.6444C49.2831 18.8421 49.3015 18.9679 49.4674 19.1476C49.7624 19.5071 50.0389 19.8845 50.3155 20.244C50.4998 20.4956 50.5736 20.7831 50.4261 21.0707Z" fill="black"/>
</g>
<defs>
<clipPath id="clip0_2221_2235">
<rect width="37" height="36" fill="white" transform="translate(13.5 13.0547)"/>
</clipPath>
</defs>
</svg>
