<svg width="50" height="51" viewBox="0 0 50 51" fill="none" xmlns="http://www.w3.org/2000/svg">
<path d="M3.76493 44.7616C4.10825 44.0152 4.69041 43.7764 5.49647 43.7764C19.1697 43.7913 32.843 43.7913 46.5013 43.7913C47.382 43.7913 47.8596 44.0898 48.0537 44.7466C48.2925 45.5228 47.7402 46.3289 46.9342 46.4035C46.755 46.4185 46.561 46.4185 46.3669 46.4185C32.7385 46.4185 19.11 46.4185 5.48155 46.4334C4.67548 46.4334 4.0784 46.2095 3.75 45.4482C3.76493 45.2243 3.76493 45.0004 3.76493 44.7616Z" fill="#545454"/>
<path d="M44.9937 41.1343C42.2321 41.1343 39.5005 41.1343 36.7091 41.1343C36.7091 40.9701 36.7091 40.8059 36.7091 40.6566C36.7091 33.5812 36.7091 26.5057 36.7091 19.4452C36.7091 18.2809 37.1718 17.8181 38.3362 17.8181C40.0826 17.8181 41.8291 17.8181 43.5756 17.8181C44.4861 17.8181 45.0086 18.3256 45.0086 19.2362C45.0086 26.4311 45.0086 33.6409 45.0086 40.8357C45.0235 40.9104 45.0086 40.9999 44.9937 41.1343Z" fill="#545454"/>
<path d="M35.0522 41.1195C32.2907 41.1195 29.559 41.1195 26.7975 41.1195C26.7826 40.9553 26.7826 40.7911 26.7676 40.6418C26.7676 34.9994 26.7676 29.3569 26.7676 23.6996C26.7676 22.5502 27.2453 22.0725 28.4096 22.0725C30.1262 22.0725 31.8429 22.0725 33.5595 22.0725C34.5447 22.0725 35.0522 22.58 35.0522 23.5652C35.0522 29.2972 35.0522 35.0293 35.0522 40.7613C35.0671 40.8807 35.0522 40.9852 35.0522 41.1195Z" fill="#545454"/>
<path d="M25.0808 41.1194C22.3193 41.1194 19.6026 41.1194 16.8112 41.1194C16.8112 40.9552 16.8112 40.8059 16.8112 40.6417C16.8112 36.6562 16.8112 32.6706 16.8112 28.6851C16.8112 27.5506 17.2889 27.0879 18.4233 27.0879C20.1549 27.0879 21.8864 27.0879 23.618 27.0879C24.5584 27.0879 25.0958 27.5954 25.0958 28.5209C25.1107 32.6557 25.0958 36.7756 25.0958 40.9104C25.1107 40.9701 25.0958 41.0149 25.0808 41.1194Z" fill="#545454"/>
<path d="M29.6187 11.9369C29.0963 11.907 28.6634 11.907 28.2305 11.8622C27.4991 11.7876 26.9916 11.2204 27.0065 10.5337C27.0214 9.81723 27.5886 9.25 28.3201 9.25C29.7978 9.26493 31.2607 9.29478 32.7385 9.33956C33.4251 9.36942 33.9774 9.90679 33.9774 10.6084C33.9774 12.1011 33.9476 13.5789 33.8879 15.0716C33.858 15.7881 33.2609 16.3105 32.5743 16.3105C31.8727 16.3105 31.3353 15.803 31.2756 15.0716C31.2458 14.773 31.2756 14.4745 31.2756 14.0864C31.1264 14.2207 31.0069 14.2954 30.9174 14.3849C26.1258 18.7436 20.6177 21.6992 14.2289 22.9232C13.1093 23.1322 11.9898 23.3113 10.8553 23.4606C9.94478 23.58 9.28799 23.1024 9.21335 22.3262C9.13872 21.5201 9.66117 20.9529 10.5568 20.8484C14.3035 20.3707 17.9308 19.49 21.3192 17.7883C24.2151 16.3404 26.902 14.5342 29.2605 12.2951C29.3799 12.2056 29.4695 12.0862 29.6187 11.9369Z" fill="#78C697"/>
<path d="M15.1394 41.1195C12.3928 41.1195 9.67608 41.1195 6.8847 41.1195C6.8847 40.9852 6.8847 40.8508 6.8847 40.7015C6.8847 38.3431 6.8847 35.9995 6.8847 33.641C6.8847 32.5961 7.3773 32.1035 8.40727 32.1035C10.1687 32.1035 11.9301 32.1035 13.6915 32.1035C14.6319 32.1035 15.1693 32.5961 15.1693 33.5365C15.1842 35.9696 15.1693 38.4177 15.1693 40.8508C15.1693 40.9404 15.1543 41.015 15.1394 41.1195Z" fill="#545454"/>
<path d="M6.2731 28.7846C6.20176 28.6407 6.08049 28.5328 5.93069 28.4825C5.01045 28.1732 4.48256 26.5332 4.37556 25.9793C4.32562 25.742 4.14728 25.5621 3.91187 25.5118C3.59086 25.447 3.27698 25.6556 3.21278 25.9793C3.09151 26.5691 2.58502 28.166 1.65765 28.4825C1.47931 28.54 1.33663 28.6839 1.27956 28.8637C1.22963 29.0148 1.24389 29.1802 1.31523 29.3241C1.38657 29.4679 1.50784 29.5758 1.65765 29.6262C2.57788 29.9355 3.10577 31.5755 3.21278 32.1293C3.26985 32.4099 3.51239 32.6113 3.79773 32.6113C4.07594 32.6113 4.32562 32.4099 4.38269 32.1293C4.50396 31.5395 5.01045 29.9427 5.93782 29.6262C6.11616 29.5686 6.25884 29.4248 6.31591 29.2449C6.35157 29.0867 6.34444 28.9213 6.2731 28.7846ZM4.63237 29.0507C4.28282 29.3888 3.99748 29.7844 3.78347 30.216C3.56946 29.7772 3.28411 29.3888 2.93456 29.0507C3.28411 28.7127 3.56946 28.317 3.78347 27.8855C4.00461 28.317 4.28282 28.7127 4.63237 29.0507Z" fill="#545454"/>
<path d="M48.1481 7.53459C48.0768 7.39073 47.9555 7.28283 47.8057 7.23248C46.8854 6.92318 46.3576 5.28318 46.2506 4.72932C46.2006 4.49195 46.0223 4.31213 45.7869 4.26178C45.4659 4.19704 45.152 4.40564 45.0878 4.72932C44.9665 5.31915 44.46 6.91599 43.5326 7.23248C43.3543 7.29002 43.2116 7.43388 43.1546 7.61371C43.1046 7.76476 43.1189 7.9302 43.1902 8.07406C43.2616 8.21792 43.3828 8.32581 43.5326 8.37616C44.4529 8.68546 44.9808 10.3255 45.0878 10.8793C45.1448 11.1599 45.3874 11.3613 45.6727 11.3613C45.9509 11.3613 46.2006 11.1599 46.2577 10.8793C46.379 10.2895 46.8854 8.69266 47.8128 8.37616C47.9912 8.31862 48.1338 8.17476 48.1909 7.99494C48.2266 7.83669 48.2194 7.67125 48.1481 7.53459ZM46.5074 7.80073C46.1578 8.1388 45.8725 8.53441 45.6585 8.96599C45.4445 8.52722 45.1591 8.1388 44.8096 7.80073C45.1591 7.46266 45.4445 7.06704 45.6585 6.63546C45.8796 7.06704 46.1578 7.46266 46.5074 7.80073Z" fill="#545454"/>
</svg>
