<svg width="50" height="50" viewBox="0 0 50 50" fill="none" xmlns="http://www.w3.org/2000/svg">
<path d="M19.6915 18.6107C19.6915 17.8204 19.6754 17.0461 19.6915 16.2558C19.7076 15.6428 20.1098 15.2073 20.6729 15.1428C21.2038 15.0783 21.7186 15.3848 21.8634 15.9009C21.9117 16.0783 21.9277 16.288 21.9277 16.4816C21.9277 17.6752 21.9438 18.8688 21.9277 20.0624C21.9277 20.385 22.0082 20.627 22.2495 20.8528C23.5687 22.1109 24.8718 23.3852 26.1427 24.6917C26.4001 24.9498 26.5932 25.3369 26.6415 25.7079C26.7058 26.1273 26.4323 26.4822 26.0301 26.6757C25.644 26.8532 25.274 26.837 24.9201 26.5951C24.7914 26.4983 24.6627 26.3854 24.5501 26.2725C23.1021 24.853 21.6542 23.4175 20.1903 21.998C19.8363 21.6593 19.6754 21.2722 19.6754 20.7883C19.7076 20.0624 19.6915 19.3366 19.6915 18.6107Z" fill="#545454"/>
<path d="M32.4974 19.7884C32.8514 19.7884 33.2214 19.7723 33.5753 19.7884C34.1545 19.8207 34.6049 20.2401 34.6532 20.8046C34.7015 21.353 34.3314 21.9337 33.7523 21.9821C32.9157 22.0466 32.0631 22.0466 31.2265 21.9821C30.6312 21.9337 30.2612 21.3853 30.3095 20.7885C30.3577 20.2239 30.8082 19.8045 31.4035 19.7884C31.7735 19.7884 32.1274 19.7884 32.4974 19.7884Z" fill="#545454"/>
<path d="M21.9438 9.25552C21.9438 9.61038 21.9599 9.98137 21.9438 10.3362C21.9116 10.9169 21.4773 11.3524 20.9142 11.3847C20.335 11.4169 19.8041 11.0621 19.7559 10.4814C19.6915 9.64264 19.6915 8.80388 19.7559 7.96512C19.8041 7.38444 20.3672 7.01346 20.9142 7.06185C21.4773 7.11024 21.9116 7.54574 21.9438 8.12642C21.9599 8.49741 21.9438 8.8684 21.9438 9.25552Z" fill="#545454"/>
<path d="M9.20227 19.7884C9.54011 19.7884 9.89404 19.7723 10.2319 19.7884C10.8271 19.8207 11.2454 20.2239 11.3098 20.8046C11.358 21.3692 11.0041 21.9337 10.441 21.9821C9.58837 22.0466 8.73572 22.0466 7.88307 21.9821C7.31999 21.9337 6.96606 21.353 7.03041 20.7885C7.07867 20.2562 7.52913 19.8207 8.07612 19.8045C8.44614 19.7884 8.83225 19.7884 9.20227 19.7884Z" fill="#545454"/>
<path d="M32.8675 14.5299C32.8675 15.1428 32.3687 15.6428 31.7413 15.6428C31.13 15.6428 30.6152 15.1428 30.6152 14.5299C30.6152 13.9169 31.1461 13.3685 31.7735 13.3846C32.3848 13.4008 32.8675 13.9169 32.8675 14.5299Z" fill="#545454"/>
<path d="M28.2502 9.94915C28.2663 10.5621 27.7676 11.0782 27.1563 11.0944C26.5449 11.1105 25.998 10.5782 25.998 9.96528C25.998 9.35234 26.4967 8.85231 27.108 8.83618C27.7354 8.83618 28.2342 9.33621 28.2502 9.94915Z" fill="#545454"/>
<path d="M9.91013 13.4653C10.5215 13.4653 11.0202 13.9654 11.0202 14.5783C11.0202 15.1912 10.5376 15.7074 9.92622 15.7235C9.2988 15.7397 8.7679 15.2074 8.78399 14.5783C8.78399 13.9654 9.28271 13.4653 9.91013 13.4653Z" fill="#545454"/>
<path d="M13.4012 9.94915C13.4012 9.32008 13.8999 8.83618 14.5112 8.83618C15.1548 8.83618 15.6374 9.33621 15.6213 9.98141C15.6052 10.5943 15.0904 11.0944 14.4952 11.0782C13.8838 11.0782 13.4012 10.5782 13.4012 9.94915Z" fill="#545454"/>
<path d="M9.89406 28.3533C9.28272 28.3533 8.784 27.8371 8.784 27.2242C8.784 26.5951 9.28272 26.1112 9.91014 26.1273C10.5376 26.1273 11.0202 26.6112 11.0202 27.2564C11.0041 27.8694 10.5215 28.3533 9.89406 28.3533Z" fill="#545454"/>
<path d="M14.5434 30.7405C15.1709 30.7566 15.6535 31.2405 15.6374 31.8696C15.6213 32.4986 15.1226 32.9825 14.4952 32.9825C13.8838 32.9664 13.3851 32.4664 13.4012 31.8373C13.4173 31.2082 13.8999 30.7405 14.5434 30.7405Z" fill="#545454"/>
<path d="M38.6269 18.8044C38.0638 18.9012 37.5329 18.5625 37.3559 17.9656C37.0181 16.8365 36.809 15.6591 36.3424 14.5945C33.6558 8.44897 28.9742 4.88425 22.3139 4.23905C13.7391 3.41642 6.12952 9.23934 4.42421 17.7398C2.91196 25.3048 6.99826 33.1117 13.9965 36.2409L12.2912 37.9507C11.4063 37.4345 10.5215 36.9345 9.70101 36.3215C5.34122 33.0955 2.71891 28.7566 2.04322 23.3531C0.804458 13.3847 7.28784 4.30357 17.0692 2.27119C27.0919 0.1743 37.0825 6.61015 39.3669 16.6269C39.4474 16.9495 39.5278 17.2721 39.5439 17.5947C39.5922 18.1915 39.19 18.6915 38.6269 18.8044Z" fill="#545454"/>
<path d="M48.1187 21.0788V22.0788C48.0382 22.7885 47.9417 23.5144 47.8774 24.2241C47.7487 25.6435 47.62 27.0468 47.4913 28.4663C47.4269 29.2567 47.0569 29.8535 46.3008 30.1277C45.5607 30.4019 44.9011 30.2083 44.3702 29.6438C44.0324 29.2889 43.7106 28.9502 43.3567 28.5631C43.1958 28.7244 43.0671 28.8211 42.9545 28.9341C38.0638 33.8376 33.1731 38.7249 28.2985 43.6284C27.2528 44.6769 26.3197 44.6769 25.2579 43.6284C22.9895 41.3703 20.7212 39.1282 18.4689 36.87C18.3562 36.7732 18.2597 36.6603 18.2275 36.6442C17.1979 37.6281 16.1522 38.5636 15.1709 39.5476C12.6451 42.0961 10.1515 44.6769 7.64177 47.2416C7.30393 47.5803 6.91782 47.79 6.43519 47.6448C6.00082 47.5319 5.74341 47.2416 5.6308 46.806C5.51818 46.3222 5.72732 45.9673 6.04908 45.6286C8.09223 43.5478 10.1193 41.467 12.1624 39.3701L16.0557 35.386C16.2327 35.2086 16.4096 35.0312 16.5866 34.8537C17.5679 33.8376 18.6137 33.8214 19.6111 34.8215C21.8956 37.0797 24.1639 39.354 26.4323 41.6122C26.5449 41.7251 26.6415 41.8219 26.8667 42.0154C26.9793 41.8542 27.0597 41.6767 27.1885 41.5477C32.2239 36.4829 37.2755 31.4342 42.3271 26.3694C43.0832 25.5951 43.6302 25.6274 44.3702 26.4178C44.6598 26.7242 44.9494 27.0146 45.3194 27.4017C45.4964 25.5468 45.6572 23.8209 45.8181 22.0143C44.0163 22.1756 42.2949 22.3369 40.4448 22.5143C40.8148 22.8692 41.0883 23.1273 41.3618 23.4015C42.1501 24.1918 42.1501 24.708 41.3457 25.4984C37.6938 29.1599 34.0419 32.8214 30.406 36.4829C30.2451 36.6442 30.0843 36.8055 29.9234 36.9668C29.3442 37.5313 28.7007 37.5797 28.202 37.0958C27.7193 36.628 27.7676 35.9345 28.3146 35.3699C29.4729 34.2085 30.6312 33.0472 31.7896 31.8697C34.1545 29.4986 36.5194 27.1275 38.8682 24.7564C38.9647 24.6596 39.0773 24.5467 39.2221 24.3854C38.8843 24.0628 38.5464 23.7563 38.2247 23.4337C37.6777 22.8853 37.4846 22.224 37.7581 21.482C38.0316 20.7239 38.6269 20.369 39.4152 20.3045C41.6031 20.0948 43.7911 19.9013 45.979 19.6916C47.0569 19.6271 47.7165 20.1271 48.1187 21.0788Z" fill="#9F85EC"/>
<path d="M46.2731 9.53459C46.2018 9.39073 46.0805 9.28283 45.9307 9.23248C45.0104 8.92318 44.4826 7.28318 44.3756 6.72932C44.3256 6.49195 44.1473 6.31213 43.9119 6.26178C43.5909 6.19704 43.277 6.40564 43.2128 6.72932C43.0915 7.31915 42.585 8.91599 41.6576 9.23248C41.4793 9.29002 41.3366 9.43388 41.2796 9.61371C41.2296 9.76476 41.2439 9.9302 41.3152 10.0741C41.3866 10.2179 41.5078 10.3258 41.6576 10.3762C42.5779 10.6855 43.1058 12.3255 43.2128 12.8793C43.2698 13.1599 43.5124 13.3613 43.7977 13.3613C44.0759 13.3613 44.3256 13.1599 44.3827 12.8793C44.504 12.2895 45.0104 10.6927 45.9378 10.3762C46.1162 10.3186 46.2588 10.1748 46.3159 9.99494C46.3516 9.83669 46.3444 9.67125 46.2731 9.53459ZM44.6324 9.80073C44.2828 10.1388 43.9975 10.5344 43.7835 10.966C43.5695 10.5272 43.2841 10.1388 42.9346 9.80073C43.2841 9.46266 43.5695 9.06704 43.7835 8.63546C44.0046 9.06704 44.2828 9.46266 44.6324 9.80073Z" fill="#545454"/>
<path d="M6.8981 37.6596C6.82676 37.5157 6.70549 37.4078 6.55569 37.3575C5.63545 37.0482 5.10756 35.4082 5.00056 34.8543C4.95062 34.617 4.77228 34.4371 4.53687 34.3868C4.21586 34.322 3.90198 34.5306 3.83778 34.8543C3.71651 35.4441 3.21002 37.041 2.28265 37.3575C2.10431 37.415 1.96163 37.5589 1.90456 37.7387C1.85463 37.8898 1.86889 38.0552 1.94023 38.1991C2.01157 38.3429 2.13284 38.4508 2.28265 38.5012C3.20288 38.8105 3.73077 40.4505 3.83778 41.0043C3.89485 41.2849 4.13739 41.4863 4.42273 41.4863C4.70094 41.4863 4.95062 41.2849 5.00769 41.0043C5.12896 40.4145 5.63545 38.8177 6.56282 38.5012C6.74116 38.4436 6.88384 38.2998 6.94091 38.1199C6.97657 37.9617 6.96944 37.7963 6.8981 37.6596ZM5.25737 37.9257C4.90782 38.2638 4.62248 38.6594 4.40847 39.091C4.19446 38.6522 3.90911 38.2638 3.55956 37.9257C3.90911 37.5877 4.19446 37.192 4.40847 36.7605C4.62961 37.192 4.90782 37.5877 5.25737 37.9257Z" fill="#545454"/>
</svg>
