<svg width="63" height="63" viewBox="0 0 63 63" fill="none" xmlns="http://www.w3.org/2000/svg">
<rect x="3" y="4.05469" width="57" height="54" stroke="#020323" stroke-width="0.5"/>
<rect x="57" y="2.05469" width="5" height="5" fill="#F6F6F6" stroke="#020323" stroke-width="0.5"/>
<rect x="57" y="55.0547" width="5" height="5" fill="#F6F6F6" stroke="#020323" stroke-width="0.5"/>
<rect x="1" y="55.0547" width="5" height="5" fill="#F6F6F6" stroke="#020323" stroke-width="0.5"/>
<rect x="1" y="1.05469" width="5" height="5" fill="#F6F6F6" stroke="#020323" stroke-width="0.5"/>
<g clip-path="url(#clip0_2221_2255)">
<path d="M32.9807 39.4871C32.1625 39.6482 31.5694 40.1316 31.3444 40.9372C31.1398 41.6623 31.4466 42.2666 32.0193 42.7298C32.8784 43.4347 34.2897 43.4952 35.0669 42.7298C35.4555 42.3471 35.7828 41.4811 35.7828 41.4811C35.7828 41.4811 36.1714 41.4206 36.7237 41.0782C37.2145 40.7761 37.685 39.9705 37.8691 39.6885C37.9918 39.5274 38.135 39.3461 38.319 39.2655C39.2599 38.8627 39.7099 38.1376 39.7508 37.1708C39.7917 36.3853 39.7917 35.5998 39.7508 34.8143C39.7099 33.9281 39.3213 33.2433 38.5236 32.7801C38.2781 32.6391 38.0531 32.337 37.9713 32.0751C37.2145 29.3158 34.7192 27.4225 31.8762 27.4628C28.9922 27.5031 26.5378 29.4366 25.8424 32.1758C25.781 32.3974 25.5765 32.6592 25.3719 32.7801C24.6152 33.2232 24.1652 33.8475 24.1447 34.7338C24.1243 35.5797 24.1243 36.4256 24.1447 37.2917C24.1856 38.5002 25.1879 39.4468 26.3742 39.4468C27.5809 39.4468 28.6036 38.48 28.6241 37.2514C28.6445 36.4458 28.6241 35.6401 28.6241 34.8345C28.6241 34.0087 28.2763 33.344 27.5605 32.921C27.1514 32.6995 27.1923 32.4578 27.2946 32.1154C27.99 30.0006 29.9944 28.7115 32.3875 28.8525C34.4124 28.9734 36.2123 30.5645 36.6623 32.6995C35.4146 33.2634 35.1283 34.3108 35.2306 35.5595C35.251 35.8617 35.251 36.1638 35.2306 36.4659C35.1487 37.6341 35.3942 38.6411 36.6214 39.3058C36.56 39.7489 36.1919 40.2726 35.6192 40.3531C34.8624 39.5274 33.9829 39.2857 32.9807 39.4871ZM33.5738 42.3874C32.8784 42.3874 32.3261 41.9242 32.3261 41.3401C32.3261 40.756 32.8988 40.2927 33.5738 40.2927C34.2692 40.2927 34.8419 40.756 34.8419 41.3401C34.8419 41.9242 34.2692 42.3874 33.5738 42.3874ZM27.2128 36.0631C27.2128 36.4659 27.2537 36.8889 27.2128 37.2917C27.1719 37.7952 26.8446 38.0772 26.3333 38.0772C25.8424 38.057 25.5356 37.7751 25.5151 37.3118C25.4947 36.4458 25.4742 35.5797 25.5151 34.7136C25.5356 34.2302 25.8628 33.9684 26.3537 33.9684C26.8446 33.9684 27.1514 34.2302 27.1923 34.7136C27.2537 35.1567 27.2128 35.62 27.2128 36.0631ZM36.6214 34.7539C36.6418 34.2705 36.9691 33.9684 37.5009 33.9684C38.0327 33.9885 38.319 34.2705 38.3395 34.774C38.3599 35.1769 38.3395 35.5998 38.3395 36.0027C38.3395 36.4055 38.3599 36.8284 38.3395 37.2313C38.2986 37.7348 38.0122 38.0369 37.5009 38.0571C36.9691 38.0772 36.6418 37.7549 36.6214 37.2715C36.56 36.4458 36.56 35.5998 36.6214 34.7539Z" fill="black"/>
<path d="M46.8891 34.5725C48.2594 34.5725 49.6094 34.5725 50.9798 34.5725C51.7365 34.5725 52.3297 34.3106 52.3092 33.4647C52.2888 32.6188 51.6956 32.3972 50.9389 32.3972C48.2799 32.3972 45.6209 32.3972 42.9824 32.3972C42.2256 32.3972 41.612 32.6188 41.612 33.4647C41.5916 34.3711 42.2461 34.5926 43.0438 34.5926C44.3119 34.5725 45.6005 34.5725 46.8891 34.5725Z" fill="black"/>
<path d="M42.8597 38.3992C43.9028 38.3992 44.9664 38.3992 46.0095 38.3992C47.0322 38.3992 48.0344 38.3992 49.0571 38.3992C49.773 38.3992 50.3252 38.0971 50.3457 37.3519C50.3661 36.6067 49.8344 36.2441 49.098 36.2441C46.9913 36.224 44.8846 36.224 42.7983 36.2441C42.0825 36.2441 41.5507 36.5865 41.5711 37.3519C41.612 38.1172 42.1438 38.3992 42.8597 38.3992Z" fill="black"/>
<path d="M14.1224 20.8766C14.0815 21.8031 14.8383 22.6087 15.7996 22.6692C16.8428 22.7296 17.6404 22.0045 17.6609 20.9773C17.6609 20.0307 16.9041 19.2451 15.9428 19.225C15.0019 19.2049 14.1838 19.9501 14.1224 20.8766Z" fill="black"/>
<path d="M19.5018 21.0175C19.5427 21.9642 20.32 22.6893 21.3017 22.6691C22.2835 22.649 23.0403 21.9037 23.0403 20.9571C23.0403 20.0306 22.2426 19.225 21.3017 19.225C20.32 19.2048 19.4814 20.0306 19.5018 21.0175Z" fill="black"/>
<path d="M24.8605 20.9167C24.8401 21.9238 25.556 22.6489 26.5582 22.669C27.5604 22.6892 28.3376 21.9641 28.3581 20.9973C28.3785 20.0507 27.6013 19.245 26.64 19.2047C25.6991 19.1846 24.9014 19.95 24.8605 20.9167Z" fill="black"/>
<path d="M39.2394 12.0547H14.2043C11.6067 12.0547 9.5 13.9882 9.5 16.385V30.0408C9.5 32.3771 11.5454 34.2905 14.0611 34.351V37.07C14.0611 37.8354 14.5929 38.4799 15.3906 38.6612C15.5542 38.7015 15.7179 38.7216 15.861 38.7216C16.4951 38.7216 17.0883 38.4195 17.4155 37.8958L19.645 34.351H20.2381V33.2231H18.9291L16.3519 37.3319C16.1474 37.6541 15.7997 37.5937 15.7179 37.5736C15.6361 37.5534 15.2884 37.4326 15.2884 37.07V33.2231H14.2043C12.2817 33.2231 10.7272 31.793 10.7272 30.0408V16.385C10.7272 14.6328 12.2817 13.1826 14.2043 13.1826H39.2394C41.1621 13.1826 42.7165 14.6126 42.7165 16.385V23.0719H43.9438V16.385C43.9438 13.9882 41.8166 12.0547 39.2394 12.0547Z" fill="black"/>
<path d="M47.5639 49.7187L45.3345 46.1738H25.7605C23.1629 46.1738 21.0562 44.2403 21.0562 41.8435V28.1878C21.0562 25.8111 23.1629 23.8574 25.7605 23.8574H50.7956C53.3932 23.8574 55.4999 25.791 55.4999 28.1878V41.8435C55.4999 44.1799 53.4546 46.0933 50.9388 46.1537V48.8728C50.9388 49.6381 50.407 50.2826 49.6093 50.4639C49.4457 50.5042 49.282 50.5243 49.1389 50.5243C48.4843 50.5445 47.8912 50.2424 47.5639 49.7187ZM25.7605 25.0055C23.8378 25.0055 22.2834 26.4355 22.2834 28.2079V41.8636C22.2834 43.6159 23.8378 45.0661 25.7605 45.0661H46.0504L48.6275 49.1749C48.8321 49.4971 49.1798 49.4367 49.282 49.4166C49.3843 49.3964 49.7116 49.2756 49.7116 48.913V45.0661H50.7956C52.7182 45.0661 54.2727 43.6361 54.2727 41.8636V28.1878C54.2727 26.4355 52.7182 24.9853 50.7956 24.9853H25.7605V25.0055Z" fill="black"/>
</g>
<defs>
<clipPath id="clip0_2221_2255">
<rect width="46" height="38.4898" fill="white" transform="translate(9.5 12.0547)"/>
</clipPath>
</defs>
</svg>
