<svg width="63" height="63" viewBox="0 0 63 63" fill="none" xmlns="http://www.w3.org/2000/svg">
<rect x="3" y="4.05469" width="57" height="54" stroke="#020323" stroke-width="0.5"/>
<rect x="57" y="2.05469" width="5" height="5" fill="#F6F6F6" stroke="#020323" stroke-width="0.5"/>
<rect x="57" y="55.0547" width="5" height="5" fill="#F6F6F6" stroke="#020323" stroke-width="0.5"/>
<rect x="1" y="55.0547" width="5" height="5" fill="#F6F6F6" stroke="#020323" stroke-width="0.5"/>
<rect x="1" y="1.05469" width="5" height="5" fill="#F6F6F6" stroke="#020323" stroke-width="0.5"/>
<g clip-path="url(#clip0_2221_2203)">
<path d="M38.0937 39.5838C38.0937 39.8796 38.077 40.1097 38.0937 40.3562C38.4438 43.7087 38.7939 47.0612 39.144 50.4137C39.1774 50.7588 38.9106 51.0547 38.5605 51.0547H38.127C37.8269 51.0547 37.5768 50.8246 37.5435 50.5288C37.4434 49.592 37.3434 48.6389 37.26 47.7022C36.9766 45.007 36.7098 42.2954 36.3931 39.6003C36.3764 39.4031 36.1263 39.1401 35.9262 39.0744C33.0418 38.0062 30.1575 36.9544 27.2564 35.9191C26.4561 35.6397 26.3061 35.3603 26.5061 34.5715C26.7729 33.5362 27.023 32.4844 27.2898 31.4326C27.4565 30.7753 27.7899 30.5288 28.2901 30.6438C28.7903 30.7588 28.9737 31.1368 28.8236 31.7942C28.6402 32.5666 28.4402 33.3225 28.2568 34.0949C28.2234 34.2593 28.2068 34.4072 28.2401 34.6537C28.8737 33.1418 30.1741 33.3883 31.3746 33.3883C32.8584 33.3883 34.3423 33.3883 35.8262 33.3883H36.5098C36.3764 32.8131 36.243 32.2872 36.1263 31.7777C35.9929 31.1533 36.1763 30.7753 36.6431 30.6602C37.1433 30.5452 37.4935 30.7588 37.6435 31.3669C37.8603 32.1886 38.077 33.0103 38.2604 33.832C38.4271 34.5879 38.1103 34.9659 37.3101 34.9659C35.0426 34.9659 32.7751 34.9659 30.5076 34.9659C30.3075 34.9659 30.1074 34.9823 29.9074 34.9988C29.8907 35.0481 29.8907 35.0974 29.874 35.1631C30.0241 35.2453 30.1741 35.3439 30.3409 35.3932C32.6417 36.2313 34.9425 37.0859 37.26 37.8747C37.7936 38.0555 38.4271 38.0883 38.9773 38.0062C40.0444 37.8747 40.6946 36.9215 40.4445 35.8369C40.1611 34.5222 39.8443 33.2075 39.4442 31.9257C38.9106 30.2165 37.21 28.984 35.376 28.9511C33.5587 28.9183 31.7414 28.9347 29.924 28.9347C27.5065 28.9511 25.8392 30.2658 25.239 32.583C24.9889 33.5855 24.7388 34.6044 24.5054 35.6068C24.1553 37.0694 24.9389 38.039 26.4561 38.039C28.2568 38.039 30.0574 38.039 31.8414 38.039C32.5083 38.039 32.8584 38.302 32.8751 38.795C32.8751 39.288 32.525 39.5674 31.8747 39.5674C30.8744 39.5674 29.874 39.5674 28.807 39.5674C28.6402 41.2272 28.4735 42.8049 28.3068 44.3989C28.09 46.4367 27.89 48.4745 27.6732 50.5123C27.6399 50.8081 27.3898 51.0382 27.0897 51.0382H26.6895C26.3394 51.0382 26.0726 50.7424 26.106 50.3973C26.256 48.869 26.4228 47.3242 26.5728 45.7958C26.7729 43.7416 26.9896 41.7038 27.2064 39.5674C26.8229 39.5674 26.4895 39.5674 26.1393 39.5674C24.0052 39.5181 22.4547 37.6446 22.8882 35.5904C23.1549 34.325 23.455 33.076 23.8218 31.8435C24.6054 29.1976 26.4394 27.62 29.1904 27.3899C31.4413 27.2091 33.7254 27.2256 35.9762 27.4392C38.6772 27.7021 40.3612 29.3784 41.1114 31.9257C41.4616 33.1089 41.745 34.3086 41.9951 35.5082C42.4452 37.6282 40.928 39.5017 38.7272 39.5674C38.5605 39.5838 38.3438 39.5838 38.0937 39.5838Z" fill="black"/>
<path d="M52.7156 41.8847C52.6656 43.5609 51.7652 44.7442 50.1646 45.3522C49.7312 45.5166 49.6311 45.7138 49.6478 46.141C49.6478 47.5872 49.6645 49.0334 49.6645 50.4796C49.6645 50.7918 49.3977 51.0548 49.0809 51.0548H48.6474C48.3307 51.0548 48.0639 50.7918 48.0639 50.4796V36.2314C48.0639 36.0835 48.0472 35.9192 48.0639 35.7713C48.1139 35.3111 48.3807 35.0153 48.8475 34.9989C49.2977 34.9825 49.5644 35.2783 49.6311 35.7056C49.6645 35.8863 49.6645 36.0835 49.6645 36.2807C49.6645 38.565 49.6645 40.8658 49.6645 43.1501V43.8403C50.6648 43.4788 51.165 42.7392 51.165 41.6053C51.1817 39.5839 51.1817 37.5626 51.165 35.5412C51.165 35.0646 51.0816 34.588 50.9649 34.1279C50.5314 32.6324 49.1309 31.482 47.547 31.3834C46.3299 31.3013 45.0795 31.3341 43.8624 31.3341C43.2288 31.3341 42.6119 31.3506 41.995 31.3341C41.3948 31.3177 41.0447 31.0055 41.0447 30.5289C41.0614 30.0687 41.4282 29.7729 42.0284 29.7729C43.7457 29.7729 45.4629 29.7565 47.1969 29.7729C50.1813 29.8058 52.6989 32.2216 52.7656 35.1632C52.7656 37.3818 52.7656 39.6332 52.7156 41.8847Z" fill="black"/>
<path d="M23.9885 30.4796C24.0052 30.9726 23.6384 31.2848 23.0048 31.3013C21.4209 31.3013 19.837 31.3013 18.2531 31.3013C15.5521 31.3177 13.8515 32.9775 13.8515 35.6234C13.8348 37.6283 13.8348 39.6332 13.8515 41.6382C13.8515 42.7228 14.3517 43.4623 15.352 43.8403V43.1008C15.352 40.7343 15.352 38.3678 15.352 35.9849C15.352 35.344 15.6688 34.966 16.1523 34.966C16.6358 34.966 16.9526 35.3604 16.9526 35.9685C16.9526 40.8 16.9526 45.6316 16.9526 50.4631C16.9526 50.7754 16.6858 51.0383 16.3691 51.0383H15.9356C15.6188 51.0383 15.352 50.7754 15.352 50.4631C15.352 49.0663 15.352 47.6529 15.352 46.2561V45.5823C14.9352 45.3851 14.5184 45.2372 14.1683 45.0235C12.9512 44.3004 12.3009 43.2158 12.2843 41.8354C12.2509 39.6004 12.2342 37.3654 12.2843 35.1304C12.3509 32.1887 14.8685 29.7565 17.8363 29.7236C19.5536 29.7072 21.2708 29.7236 23.0048 29.7236C23.605 29.74 23.9718 30.0194 23.9885 30.4796Z" fill="black"/>
<path d="M33.7921 51.0547H33.3752C33.0751 51.0547 32.825 50.8246 32.7917 50.5288C32.725 49.8057 32.6083 48.6389 32.5916 48.6389C32.5583 48.9347 32.5083 49.855 32.4749 50.4959C32.4582 50.8082 32.2081 51.0383 31.8914 51.0383H31.4745C31.1244 51.0383 30.8577 50.7424 30.891 50.3973C31.1911 48.0144 31.4912 45.6315 31.808 43.2322C31.8914 42.5584 32.1748 42.2461 32.6583 42.2626C33.1418 42.279 33.3752 42.6241 33.4753 43.2979C33.7754 45.6644 34.0755 48.0309 34.3756 50.3973C34.4256 50.7424 34.1589 51.0547 33.7921 51.0547Z" fill="black"/>
<path d="M32.5082 16.9216C29.9073 16.9216 27.7565 19.0087 27.7398 21.5724C27.7232 24.1361 29.9073 26.3054 32.5082 26.2889C35.0758 26.2725 37.2433 24.1361 37.2433 21.6053C37.2433 19.0252 35.1092 16.9216 32.5082 16.9216ZM32.5082 24.6784C30.7409 24.6784 29.3571 23.3144 29.3571 21.5888C29.3571 19.8797 30.7243 18.5157 32.4582 18.4828C34.2089 18.45 35.626 19.8304 35.6427 21.556C35.6427 23.298 34.2755 24.6784 32.5082 24.6784Z" fill="black"/>
<path d="M20.3371 20.1755C17.9863 20.1262 15.9355 22.0654 15.8855 24.399C15.8355 26.8476 17.7195 28.8033 20.1871 28.8526C22.5879 28.9183 24.6387 26.9955 24.6887 24.6291C24.7387 22.2461 22.7713 20.2248 20.3371 20.1755ZM20.2871 27.3078C18.7365 27.3078 17.4527 26.0588 17.4527 24.5305C17.4527 23.0185 18.7032 21.786 20.2371 21.7696C21.8377 21.7531 23.0714 22.9364 23.0714 24.514C23.0881 26.0752 21.8543 27.3078 20.2871 27.3078Z" fill="black"/>
<path d="M44.746 20.1754C42.3452 20.1426 40.2944 22.1639 40.2944 24.5304C40.2944 26.9133 42.2785 28.8525 44.696 28.8525C47.1302 28.8525 49.0976 26.9298 49.0976 24.5468C49.1143 22.1804 47.1636 20.2083 44.746 20.1754ZM44.696 27.3077C43.1455 27.3077 41.9117 26.0916 41.9117 24.5468C41.9117 22.9692 43.1121 21.7531 44.7127 21.7695C46.2633 21.7695 47.5137 22.9856 47.5304 24.514C47.5471 26.0423 46.2633 27.3077 44.696 27.3077Z" fill="black"/>
<path d="M21.0707 50.3317V50.4631C21.0707 50.7754 20.804 51.0383 20.4872 51.0383H20.0704C19.7536 51.0383 19.4868 50.7754 19.4868 50.4631V46.2396C19.4868 45.7466 19.4868 45.2372 19.4868 44.7442C19.4868 44.0704 19.7536 43.7417 20.2704 43.7417C20.7873 43.7417 21.0707 44.0704 21.0707 44.7277C21.0707 46.6012 21.0707 48.4582 21.0707 50.3317Z" fill="black"/>
<path d="M45.4963 46.4697C45.4963 47.8009 45.4963 49.132 45.4963 50.4631C45.4963 50.7754 45.2295 51.0383 44.9127 51.0383H44.4959C44.1791 51.0383 43.9124 50.7754 43.9124 50.4631V50.2166C43.9124 48.3596 43.9124 46.519 43.9124 44.662C43.9124 44.2018 44.0624 43.8567 44.5459 43.7581C45.0794 43.6431 45.4796 43.9718 45.4963 44.5634C45.5129 45.2043 45.4963 45.8452 45.4963 46.4697Z" fill="black"/>
<path d="M17.7362 14.818C17.3527 14.818 17.0193 14.5058 17.0193 14.1114V11.7613C17.0193 11.3669 17.3361 11.0547 17.7362 11.0547C18.1197 11.0547 18.4531 11.3669 18.4531 11.7613V14.1278C18.4365 14.5058 18.1197 14.818 17.7362 14.818Z" fill="black"/>
<path d="M13.3181 19.2223C13.3181 19.6003 13.0013 19.9289 12.6011 19.9289H10.2169C9.81678 19.9125 9.5 19.6003 9.5 19.2223C9.5 18.8443 9.81678 18.5156 10.2169 18.5156H12.6178C13.0013 18.5156 13.3181 18.8279 13.3181 19.2223Z" fill="black"/>
<path d="M15.3688 16.7738C15.1021 17.0367 14.6686 17.0367 14.4018 16.7738L10.4337 12.8625C10.167 12.5996 10.167 12.1723 10.4337 11.9094C10.7005 11.6464 11.134 11.6464 11.4007 11.9094L15.3688 15.8206C15.6356 16.0836 15.6356 16.5108 15.3688 16.7738Z" fill="black"/>
<path d="M47.2638 14.818C47.6473 14.818 47.9807 14.5058 47.9807 14.1114V11.7613C47.9807 11.3834 47.6639 11.0547 47.2638 11.0547C46.8803 11.0547 46.5469 11.3669 46.5469 11.7613V14.1278C46.5635 14.5058 46.8803 14.818 47.2638 14.818Z" fill="black"/>
<path d="M51.6653 19.2223C51.6653 19.6003 51.9821 19.9289 52.3822 19.9289H54.7831C55.1666 19.9289 55.5 19.6167 55.5 19.2223C55.5 18.8443 55.1832 18.5156 54.7831 18.5156H52.3822C51.9987 18.5156 51.6653 18.8279 51.6653 19.2223Z" fill="black"/>
<path d="M49.6312 16.7738C49.898 17.0367 50.3315 17.0367 50.5982 16.7738L54.5663 12.8625C54.8331 12.5996 54.8331 12.1723 54.5663 11.9094C54.2996 11.6464 53.8661 11.6464 53.5993 11.9094L49.6312 15.8206C49.3645 16.0836 49.3645 16.5108 49.6312 16.7738Z" fill="black"/>
</g>
<defs>
<clipPath id="clip0_2221_2203">
<rect width="46" height="40" fill="white" transform="translate(9.5 11.0547)"/>
</clipPath>
</defs>
</svg>
