<svg width="40" height="40" viewBox="0 0 40 40" fill="none" xmlns="http://www.w3.org/2000/svg">
<rect x="1.5" y="1.5" width="37" height="37" rx="4.5" fill="#F6F6F6"/>
<rect x="1.5" y="1.5" width="37" height="37" rx="4.5" stroke="#F6F6F6" stroke-width="3"/>
<path d="M22.3628 16.0828C23.4243 15.1527 24.5107 14.2536 25.5972 13.3606C25.6596 13.3234 25.722 13.2862 25.7782 13.2428C27.0832 12.2383 28.4256 11.302 29.8118 10.4152C31.1355 9.56573 32.6528 10.0618 33.2147 11.519C33.2335 11.5686 33.2272 11.6678 33.3334 11.612C33.3334 12.0027 33.3334 12.3995 33.3334 12.7902C33.2397 12.7158 33.2335 12.8212 33.221 12.8584C33.0461 13.4599 32.6278 13.8629 32.122 14.1916C29.9367 15.5991 27.8637 17.1493 25.9218 18.867C25.8032 18.9724 25.6971 19.0778 25.5847 19.1894C24.4358 20.194 23.3556 21.2605 22.3503 22.4077C21.6135 23.1704 20.9517 23.9889 20.3023 24.8198C19.4594 25.8987 18.7226 27.0459 17.9921 28.1992C17.5675 28.8689 16.9119 29.1728 16.1189 29.1666C15.4508 29.1604 14.9326 28.8565 14.4643 28.4101C12.9158 26.9095 11.361 25.4151 9.8188 23.9083C8.93217 23.0401 7.98934 22.2154 7.16514 21.2915C6.29724 20.318 6.60943 18.6872 7.73958 18.0423C8.68241 17.5028 9.70641 17.6454 10.5306 18.4453C12.1915 20.0513 13.8586 21.6574 15.507 23.2696C15.713 23.468 15.8005 23.4618 15.9691 23.2324C17.2053 21.5023 18.5915 19.8963 20.0651 18.3647C20.8081 17.571 21.5948 16.8393 22.3628 16.0828Z" fill="#5159F6"/>
</svg>
